<?xml version="1.0" encoding="UTF-8"?><svg id="Capa_1" xmlns="http://www.w3.org/2000/svg" viewBox="0 0 80 80"><defs><style>.cls-1{fill:#000205;}.cls-2{fill:#fff;}</style></defs><rect class="cls-1" width="80" height="80"/><path class="cls-2" d="m18.31,65c-2.49,0-4.52-2.03-4.52-4.52s2.03-4.52,4.52-4.52c.96,0,1.88.25,2.64.76v-.66h2.13v8.73h-2.13v-.56c-.76.46-1.62.77-2.64.77m-2.43-4.52c0,1.32,1.17,2.49,2.49,2.49,1.42,0,2.59-1.17,2.59-2.49s-1.17-2.54-2.59-2.54c-1.32,0-2.49,1.17-2.49,2.54m12.49,4.52c-2.49,0-4.57-2.03-4.57-4.52s2.08-4.52,4.57-4.52c.96,0,1.83.25,2.59.76v-3.66h2.18v11.73h-2.18v-.56c-.76.46-1.63.77-2.59.77m-2.49-4.52c0,1.32,1.17,2.49,2.59,2.49,1.32,0,2.49-1.17,2.49-2.49s-1.17-2.54-2.49-2.54c-1.42,0-2.59,1.17-2.59,2.54m10.46,4.32h-2.13v-8.73h2.13v8.73Zm-2.13-11.73h2.13v2.18h-2.13v-2.18Zm10.15,0h2.13v11.73h-2.13v-.56c-.71.46-1.63.77-2.59.77-2.49,0-4.52-2.03-4.52-4.52s2.03-4.52,4.52-4.52c.96,0,1.83.25,2.59.76v-3.66Zm-5.02,7.41c0,1.32,1.17,2.49,2.49,2.49s2.54-1.17,2.54-2.49-1.17-2.54-2.54-2.54-2.49,1.17-2.49,2.54m12.43,4.52c-2.49,0-4.57-2.03-4.57-4.52s2.08-4.52,4.57-4.52c.97,0,1.83.25,2.54.76v-.66h2.18v8.73h-2.18v-.56c-.71.46-1.57.77-2.54.77m-2.44-4.52c0,1.32,1.17,2.49,2.54,2.49s2.44-1.17,2.44-2.49-1.12-2.54-2.44-2.54-2.54,1.17-2.54,2.54m11.94,4.52c2.13,0,3.91-.87,3.91-3,0-1.22-.86-2.03-2.23-2.38-1.42-.36-3.25-.3-3.25-1.22.1-.61.66-.76,1.52-.76,1.32,0,1.37.71,1.42,1.17h2.18c-.15-1.67-1.52-2.84-3.7-2.84s-3.61,1.22-3.61,2.79c0,.91.46,1.72,1.22,2.13.56.25,1.32.46,2.23.61.96.1,1.83.2,1.88.86,0,.46-.46,1.02-1.47,1.02-1.47,0-1.78-.81-1.78-1.37h-2.28c.05,1.78,1.52,3,3.96,3m-15.13-28.63c.1-1.17.2-2.28.2-3.6,0-7.1-3.2-14.47-6.7-17.76-3.55,3.3-6.7,10.66-6.7,17.76,0,1.32,0,2.44.2,3.6h12.99Zm-14.16,0c-.56-.96-1.32-1.88-2.08-2.79-4.37-5.12-11.12-8.27-15.74-8.58-.3,3.3.71,7.31,2.74,11.37h15.08Zm7.66,14.31c1.06-1.12,2.18-2.64,3.2-4.57h-6.45c1.07,1.93,2.08,3.45,3.25,4.57m-3.6-.3c.05-1.12.05-2.64-.16-4.26h-10.35c3.66,2.69,7.61,4.06,10.51,4.26m29.13-25.38c-4.67.3-11.37,3.45-15.73,8.58-.81.91-1.52,1.83-2.08,2.79h15.02c2.03-4.06,3.1-8.07,2.79-11.37m-11.47,21.12h-10.26c-.3,1.63-.3,3.15-.3,4.26,2.99-.2,6.95-1.57,10.56-4.26m4.62-3.76H20.9c.61.71,1.27,1.37,1.93,1.83h33.4c.81-.46,1.57-1.11,2.08-1.83m3.05-4.06c-.31.61-.86,1.47-1.37,1.98H19.22c-.31-.41-1.02-1.32-1.32-1.98h43.45Z"/></svg>