<?xml version="1.0" encoding="UTF-8"?><svg id="Capa_1" xmlns="http://www.w3.org/2000/svg" viewBox="0 0 80 80"><defs><style>.cls-1{fill:#000205;}.cls-2{fill:#fff;}</style></defs><rect class="cls-1" width="80" height="80"/><path class="cls-2" d="m36.31,43.95s.05-.07.07-.1c0,0,0-.01.01-.02,0-.01.01-.03.02-.04,0,0,0-.02.01-.02,0-.02.02-.04.03-.06,0-.01.01-.03.02-.04,0-.01,0-.03,0-.04,0-.02.01-.04.02-.06,0-.02.02-.04.03-.07,0,0,.01-.02.02-.03.03-.02.06-.05.08-.07-.03-.02-.05-.04-.08-.06,0-.02,0-.04-.01-.06,0-.02,0-.04.01-.06.09-.05.09-.11,0-.16,0-.04,0-.08-.01-.13,0,0,0-.02,0-.03,0-.03,0-.06-.01-.1-.02-.04-.03-.08-.05-.12,0-.02,0-.05-.01-.07,0,0,0-.01.01-.02,0-.01-.02-.03-.03-.04,0,0,0,0,0,0,0-.01-.02-.02-.02-.03,0-.02,0-.04,0-.06,0-.01-.02-.02-.02-.04-.05-.12-.11-.23-.16-.35,0-.01-.01-.02-.02-.03-.02-.02-.03-.04-.05-.06,0-.01-.01-.02-.02-.03,0,0,0,0,0,0-.02-.05-.04-.1-.06-.16,0-.02,0-.04,0-.06,0-.03-.02-.06-.03-.1,0-.01-.02-.02-.03-.03,0-.02,0-.04,0-.06,0,0,0-.02,0-.03,0-.03-.01-.06-.02-.1,0-.07-.01-.15-.02-.22,0-.01-.01-.02-.02-.04,0-.01,0-.02,0-.03-.02-.04-.04-.08-.06-.12-.01-.02-.03-.05-.04-.07,0,0-.01-.02-.02-.03-.01-.02-.03-.05-.04-.07,0,0-.01-.02-.02-.02,0,0,0,0,0,0,0-.01-.02-.02-.03-.04-.01-.02-.02-.04-.04-.06-.03-.04-.06-.09-.09-.13-.02-.04-.04-.08-.06-.13,0-.01-.01-.02-.02-.03,0,0-.02,0-.02,0,0-.01-.02-.02-.03-.03,0-.01-.01-.02-.02-.03,0,0,0-.01-.01-.02,0,0,0,0,0,0,0-.01-.02-.02-.02-.04-.04-.05-.08-.1-.13-.16-.18-.2-.27-.23-.48-.13,0,0-.02.02-.03.03,0,0,0,.01,0,.02,0,0-.02.02-.03.02,0,0,0,0,0,0,0,0-.02.02-.03.03,0,0,0,0,0,0-.01,0-.02.02-.03.03-.04.04-.09.07-.13.11,0,0-.01,0-.01,0h0s-.03.04-.04.05c0,0-.02.02-.03.03-.04.04-.09.07-.13.11,0,0-.01.01-.02.02,0,0,0,0,0,0,0,0-.02.02-.03.03-.02.01-.05.02-.07.03,0,0-.02.02-.03.02,0,0-.02.01-.03.02-.02-.01-.03-.02-.05-.03,0,.03-.01.06-.02.08,0,0,0,0,0,0-.09-.01-.13.03-.13.12,0,.01,0,.02,0,.03,0,0-.02,0-.03,0,0,0-.02.02-.03.03,0,0,0,0,0,0,0,0-.02.02-.03.03-.01.01-.02.02-.04.04,0,0-.02.02-.03.03-.01.02-.02.05-.03.07,0,0-.01.02-.02.03-.02.04-.05.08-.07.13-.02.03-.03.06-.05.1-.02.04-.03.08-.05.12,0,.01-.01.02-.02.03,0,.01,0,.03-.01.04,0,0-.01,0-.01,0h0s-.02.05-.03.07c0,.01-.01.03-.02.04-.04.06-.08.13-.11.19-.02,0-.05.01-.07.02,0,.02.02.03.03.05,0,.02,0,.04-.01.06,0,.01-.01.02-.02.03-.01.02-.03.04-.04.06,0,.01-.02.02-.02.03-.03.05-.07.11-.1.16,0,.01-.02.02-.03.03,0,0,0,0,0,0,0,0-.01.02-.02.03,0,0-.01.02-.02.02-.05.07-.11.13-.16.2-.11.11-.23.23-.34.34-.02,0-.03.01-.05.02-.12-.03-.19,0-.17.14,0,0,0,.01,0,.02-.01,0-.02.02-.03.03-.02.02-.05.03-.07.05,0,0-.01.01-.02.02-.06.03-.11.06-.17.09-.03-.02-.06-.03-.08-.05l-.04.12s-.06.04-.1.05c-.01,0-.02.02-.04.02,0,0,0,.01,0,.01-.01,0-.03.01-.04.02-.03.01-.06.03-.09.04-.01,0-.02.01-.03.02,0,0,0,0,0,0-.04.02-.08.04-.12.07-.01,0-.03.02-.04.02-.05.02-.1.05-.16.07-.01,0-.02.02-.03.02,0,0,0,.02,0,.02-.01,0-.02.02-.03.02-.06.05-.13.09-.19.14,0,0-.01.01-.02.02-.02.01-.05.02-.07.03-.13,0-.21.04-.19.19-.03.05-.07.1-.1.15-.03.04-.07.08-.1.13,0,0,0,0,0,0-.04.05-.08.11-.12.16,0,0,0,0,0,0,0,.01-.02.02-.03.03,0,0,0,0,0,0,0,0-.01.02-.02.03-.03.03-.06.06-.09.1,0,0-.01.02-.02.03,0,.02-.02.05-.03.07,0,0-.01.02-.02.02,0,0-.01.02-.02.03,0,.01-.02.02-.03.04-.02.02-.04.04-.07.06-.12-.07-.25-.14-.38-.21-.02.17.05.23.32.3,0,.05-.01.11-.02.16-.05.12-.09.23-.14.35,0,0,0,.02-.01.03,0,.02-.01.04-.02.07-.02.03-.03.07-.05.1,0,.01,0,.03-.01.04,0,.02,0,.04,0,.05,0,.02,0,.04-.01.06,0,.03-.02.06-.02.1,0,.2,0,.4,0,.6,0,.02,0,.04,0,.06,0,.01.01.02.02.03,0,.07,0,.15.01.22,0,.01.01.02.02.03,0,.04.01.09.02.13,0,.01.02.02.03.03,0,0,0,0,0,0,0,0,.02.01.03.02.02,0,.04.01.06.02.04.02.09.04.13.05,0,0,.02,0,.03,0,.01,0,.02,0,.03.01.01.01.02.02.04.03.02,0,.03.01.05.02.03,0,.05.02.08.03,0,0,.02.01.02.02.05.05.09.1.14.14,0,.01.01.02.02.03,0,.03,0,.06,0,.09-.04.1-.08.2-.12.3-.03.02-.06.03-.09.05-.01,0-.02.01-.03.02l-.15.02s-.07,0-.11.01c0,0,0,.01,0,.01h-.06s-.06,0-.09-.02c-.03,0-.06-.01-.1-.02,0,0-.02,0-.03.01-.02,0-.05-.02-.07-.03,0,0-.02-.01-.03-.02-.04-.01-.08-.02-.12-.04,0,0,0-.02,0-.02,0-.07,0-.15-.1-.06-.03-.02-.06-.03-.09-.05,0-.17-.13-.11-.22-.12-.05,0-.11-.02-.16-.03-.14-.03-.26.01-.35.12-.03.04-.07.09-.1.13,0,.01-.02.02-.02.03,0,.01-.01.02-.02.03-.04.05-.09.11-.13.16,0,0-.02.02-.03.03-.07.04-.13.08-.2.13,0,0-.02.01-.03.02-.01,0-.02,0-.04.01,0,0-.02.01-.03.02-.01,0-.02.02-.03.02,0,0-.02,0-.03,0-.11-.05-.22-.08-.32.03,0,0-.02,0-.03,0-.1-.08-.11-.18-.1-.29.02-.03.03-.07.05-.1,0,0,.01,0,.01,0,.04-.02.08-.04.12-.06-.02-.02-.04-.05-.06-.07-.07-.12-.16-.06-.25-.03-.01,0-.02,0-.03.01-.01,0-.02.01-.03.02-.04.01-.08.02-.12.03,0,0-.02.01-.03.02-.01.01-.02.02-.04.03-.01,0-.02,0-.03.01,0,0,0,0,0,0-.04.01-.08.02-.13.03,0,0-.02.01-.03.02-.01,0-.02.02-.03.02,0,0-.02,0-.03,0-.01,0-.02.01-.03.02-.04.02-.09.03-.13.05-.01,0-.02.01-.03.02-.06,0-.12,0-.19,0-.01,0-.02.01-.03.02-.07,0-.15,0-.22,0-.03,0-.06,0-.09,0l-.12-.02s0-.03-.01-.05c-.03-.05-.06-.09-.09-.14h0s0,0,0,0c0-.02,0-.04,0-.07,0,0,.01,0,.02,0,.09-.02.2,0,.18-.15.01-.01.02-.02.04-.04.01,0,.02,0,.03,0,.04-.02.09-.04.13-.06.08-.03.19-.02.15-.16-.02,0-.04-.02-.06-.02h-.13s-.02,0-.03,0c-.02,0-.04,0-.06,0-.03,0-.06.01-.1.02-.05,0-.1,0-.16,0-.01-.02-.03-.04-.04-.05-.02.02-.04.04-.05.06-.01.01-.02.02-.03.03-.07,0-.15,0-.22,0-.07-.04-.14-.08-.19.03-.08,0-.17,0-.25,0l-.21-.05-.18-.05c.02-.15-.06-.18-.19-.17,0,0-.02,0-.03,0,0-.01,0-.02-.01-.03,0,0,0-.02,0-.02,0-.01-.01-.02-.02-.04,0-.02,0-.04,0-.07,0-.01.01-.02.02-.03,0,0,.02,0,.02,0,.09-.05.19-.1.28-.15.04-.01.07-.02.11-.03.02,0,.03,0,.05,0,.12,0,.23-.01.35-.02.03,0,.06,0,.09,0,.03,0,.06-.01.1-.02.01,0,.02,0,.03,0,.05,0,.1,0,.16,0,.02,0,.04-.01.06-.02.02,0,.04-.01.06-.02.02,0,.04-.01.06-.02,0,0,0,0,0,0,.07-.02.15-.04.22-.06.02,0,.04-.01.06-.02.02,0,.04-.01.06-.02.1-.03.19-.06.29-.09,0,0,.02-.01.03-.02.04-.03.09-.05.13-.08.04-.02.08-.04.12-.07.01,0,.02,0,.03,0,.01,0,.02-.01.03-.02.08-.05.15-.09.23-.14.04-.03.08-.05.12-.08.03-.03.06-.06.09-.08.04-.03.07-.06.11-.09.02-.02.04-.03.06-.05,0,0,.02-.01.02-.02,0,0,0,0,0,0,.01,0,.02-.02.03-.03,0,0,0,0,0,0,0,0,.01,0,.01,0h.01s.04-.04.07-.06c.02-.03.04-.05.06-.08,0,0,.02-.01.02-.02,0,0,0,0,0,0,0,0,.02-.02.03-.03,0,0,0,0,0,0,0,0,.02-.02.03-.03,0,0,0,0,0,0,0,0,.02-.02.03-.03,0,0,0,0,0,0,0,0,.02-.02.03-.03,0,0,0,0,0,0,0,0,.02-.02.02-.03.01-.01.03-.03.04-.04.02,0,.03-.01.05-.02.2,0,.29-.1.24-.26.04-.06.09-.12.13-.18,0-.01.02-.02.03-.03,0,0,0,0,0,0,0,0,.02-.02.02-.03,0,0,0,0,0,0,0,0,0,0,0,0s.01,0,.01,0h0c.04-.07.08-.12.11-.17,0-.01.02-.02.03-.04.02-.02.04-.04.06-.06.17-.03.2-.07.15-.23,0,0,0-.01,0-.02.03-.04.06-.09.09-.13.17-.02.23-.11.17-.31,0-.01,0-.02,0-.03,0,0,.01-.02.02-.03,0-.01,0-.02.01-.03,0,0,0-.02.01-.03,0-.01.01-.03.02-.04,0,0,0,0,0,0h0c.08,0,.1-.02.05-.09,0-.01,0-.02.01-.03,0-.01.01-.02.02-.03.04-.08.07-.17.11-.25,0-.01.01-.02.02-.03.01-.04.02-.08.04-.12,0,0,0,0,0,0,0-.01.01-.02.02-.03,0-.01,0-.02.01-.04,0,0,0-.02.01-.02,0-.02.02-.04.02-.06,0-.01.01-.03.02-.04,0-.01,0-.02,0-.03,0,0,.02,0,.02,0,.02-.05.05-.11.07-.16.03-.07.07-.14.1-.21.11-.01.12-.04.12-.23,0-.02,0-.03,0-.05.05-.08.09-.15.14-.23.02-.02.03-.05.05-.07,0-.01.02-.02.02-.03.01-.02.03-.04.04-.06.02-.03.05-.06.07-.09.04-.04.08-.08.13-.13.09,0,.18-.01.14-.14,0,0,0,0,0,0,.13,0,.22-.02.2-.18.06-.06.11-.12.17-.18,0-.01.02-.02.02-.03.04-.07.08-.13.13-.2,0,0,.01-.02.02-.03,0,0,.01-.02.02-.02.06-.08.12-.15.17-.23.02-.02.05-.04.07-.07.19.02.16-.11.16-.23,0-.01,0-.02,0-.03,0,0,.01,0,.02,0,.12,0,.11-.08.11-.15,0-.01,0-.02,0-.03,0-.01.01-.02.02-.03,0,0,0-.02.01-.03.02-.03.03-.07.05-.1,0-.01,0-.03.01-.04,0-.02.01-.04.02-.05,0-.02.01-.04.02-.06,0-.01.01-.03.02-.04,0-.01,0-.02,0-.04.02-.04.04-.08.06-.12,0,0,.01-.02,0-.03,0-.01.01-.02.02-.04,0,0,.01,0,.01,0,.14-.02.18-.09.12-.22.01-.03.02-.05.04-.08,0,0,.01,0,.01,0,0,0,0-.01,0-.01,0-.01.01-.02.02-.03,0-.01.02-.02.02-.03,0,0,0,0,0,0s.01,0,.01,0h0c.05-.08.11-.15.16-.21.16-.01.19-.05.12-.16,0,0,0-.01,0-.02.05-.07.1-.13.14-.2,0,0,.01-.01.02-.02,0-.01.01-.02.02-.03,0-.01.02-.02.02-.03,0,0,0,0,0,0,0,0,0-.01.01-.02.03-.05.06-.09.08-.14,0,0,.01,0,.01,0h0c.06-.11.12-.21.18-.31,0,0,.01-.02.02-.02.01-.01.03-.02.04-.03.02-.03.04-.07.07-.1,0,0,0-.02,0-.03,0,0,0,0,0,0,0,0,.01-.01.02-.02,0-.01.01-.02.02-.03,0-.01.02-.02.03-.03,0,0,.01,0,.01,0,.03-.04.06-.08.09-.13.02-.04.04-.09.06-.13,0-.01.02-.03.03-.04,0,0,.01-.02.02-.02.03-.04.05-.08.08-.12.03-.03.05-.05.08-.08l.12-.04s-.04-.04-.06-.05v-.06s.03-.02.04-.03c.01-.01.02-.02.03-.03,0-.01.02-.02.02-.03,0,0,0,0,0,0,0,0,.01-.01.02-.02l.05-.03c.1-.07.22-.12.31-.21.04-.04,0-.15.01-.23,0-.01,0-.02,0-.03,0-.01.02-.02.02-.03.01-.02.03-.04.04-.07,0,0,.01-.02.02-.03.02-.03.03-.06.05-.09,0-.01.01-.02.02-.03,0,0,0-.02.01-.03,0-.01.01-.02.02-.03v-.03s.05-.08.07-.13c.01,0,.01-.01,0-.02.04-.06.09-.11.13-.17,0,0,.02-.02.03-.03.01,0,.02,0,.03,0,.18.03.22,0,.25-.16.01-.01.02-.02.03-.03.01,0,.02-.01.04-.02,0,0,0,0,0,0,.05-.01.1-.03.15-.04.01,0,.02-.01.03-.02.01,0,.02-.02.03-.02.02,0,.04-.01.06-.02.01,0,.02,0,.03,0,.01,0,.02-.02.03-.02.06,0,.12,0,.19,0,.01,0,.02-.01.03-.02.01,0,.02-.01.03-.02.02,0,.04-.01.06-.02.05-.01.1-.02.15-.03.01,0,.02-.01.03-.02,0-.01.01-.01.03-.01.18,0,.19-.01.15-.13.01-.03.03-.06.04-.09,0,0,.01,0,.01,0,0-.01.02-.03.02-.04.04-.07.07-.14.11-.22,0-.01.01-.02.02-.03,0-.01,0-.02,0-.04,0,0,.01-.01.02-.02,0-.01.01-.02.02-.03.03-.04.05-.09.08-.13.02-.03.03-.06.05-.09,0-.01.02-.03.02-.04,0,0,0,0,0,0,0-.02.02-.04.03-.06,0,0,.01,0,.01,0,.01-.01.03-.02.04-.03-.01-.01-.03-.02-.04-.03-.01-.03-.03-.06-.04-.1,0-.01-.02-.02-.03-.03,0-.01-.01-.02-.02-.03,0-.02,0-.03-.01-.05,0-.17-.12-.23-.27-.26-.02-.01-.04-.03-.06-.04,0,0-.01-.01-.02-.02,0-.01,0-.02,0-.03,0-.06.03-.13,0-.17-.02-.03-.1-.02-.16-.03-.03-.04-.06-.08-.09-.12-.02-.06-.05-.12-.07-.18,0-.01-.01-.02-.02-.04-.01-.01-.02-.03-.03-.04,0,0,0-.01.01-.02.02-.02.04-.03.06-.05-.04-.03-.08-.06-.11-.08,0,0-.01,0-.02,0,0-.01,0-.02-.01-.03,0-.02,0-.04-.01-.06,0,0,0-.02,0-.02,0-.01-.01-.03-.02-.04,0-.01-.01-.02-.02-.03v-.03s0-.02,0-.03c0-.02-.02-.05-.03-.07,0-.02,0-.04,0-.06,0-.01-.01-.02-.02-.04,0-.02-.01-.04-.02-.07,0,0,0-.02,0-.03.11-.07.06-.11-.02-.16,0-.13,0-.25,0-.38.16-.06.06-.17.05-.26,0-.03,0-.06,0-.09,0-.02.02-.04.02-.06v-.03s.02-.04.03-.06c.01-.03.03-.07.04-.1,0,0,0-.02.01-.03,0-.01.01-.03.02-.04,0,0,.01-.02.02-.03,0-.01.01-.02.02-.03,0,0,.02,0,.02,0,.02-.04.05-.08.07-.12,0-.01,0-.02,0-.03,0,0,.02-.02.02-.03.04-.04.07-.08.11-.13.03-.03.06-.07.09-.1.05-.05.09-.11.14-.16,0,0,.02-.02.03-.02,0,0,0-.01,0-.01,0,0,.02,0,.03,0,.04.02.09.04.15.07,0-.07-.02-.13-.02-.18.02-.02.04-.03.06-.05.11,0,.24.02.22-.16.02-.02.04-.04.06-.06.03-.01.06-.02.09-.03.11.07.13-.03.16-.09.06-.03.13-.07.19-.1.01,0,.03-.01.04-.02.05-.02.1-.03.15-.05.01,0,.02-.01.03-.02.02,0,.04,0,.06-.01,0,0,.02,0,.03,0,.01,0,.02,0,.03-.01.01,0,.02-.01.03-.02.01,0,.02-.02.03-.03.04,0,.08,0,.13-.01.02,0,.04-.01.07-.02.02,0,.04-.01.06-.02.01,0,.02,0,.03,0h.13c.14,0,.27,0,.41,0,.01,0,.02,0,.03,0h.02s.01,0,.01,0c.07.01.13.03.2.04.03,0,.06.02.09.03,0,.01.02.01.03.01.01,0,.02.01.03.02.01,0,.03,0,.04.01.02.01.04.02.05.03,0,0,0,0,0,0,.01,0,.02.02.03.03.02,0,.04,0,.06,0,.01,0,.02.01.04.02.02.01.05.03.07.04.04.03.08.06.12.08.02.02.04.05.06.07.02.15.12.24.26.24.02.01.04.03.06.04.05.06.09.11.14.17,0,0,.01.01.02.02,0,0,0,0,0,0,0,0,.02.02.03.03,0,0,0,0,0,0,0,.01.02.02.03.03.03.04.06.08.1.13,0,.03,0,.05-.01.08.03,0,.06-.01.08-.02.07.03.14.07.21.1,0,0,.02,0,.03.01.05.02.09.03.14.05.02,0,.03.01.05.02.01,0,.02.02.03.03.01.16.14.16.25.18,0,0,0,0,0,0,0,0,.01.02.02.03,0,.01,0,.02.01.03,0,.01.01.02.02.03,0,.01.02.02.02.03,0,.01.01.02.02.03,0,.02,0,.04.01.06,0,.02.02.04.02.06,0,.01,0,.03,0,.04,0,.02.02.04.02.06v.03s.02.04.03.06c0,.02,0,.04,0,.06,0,.01.02.02.02.04,0,.01,0,.02.01.03,0,0,.02.02.02.03.06,0,.13.02.19.03.01,0,.02-.01.04-.02,0,0,0,0,0,0,.05-.04.11-.09.16-.13,0,0,.02-.02.02-.03.02-.03.04-.07.06-.1,0,0,.01,0,.02,0,.17-.01.21-.05.18-.22,0,0,0,0,0,0,.13.08.1-.03.11-.09,0,0,0-.02,0-.03.01,0,.02-.01.03-.02,0,0,.01,0,.02-.01,0,0,0,0,0,0,.03-.01.06-.02.08-.03.14-.01.17-.04.13-.16l.04-.12s.01,0,.01,0c0-.01.01-.02.02-.04.02-.07.05-.15.07-.22l.09-.19s0,0,0-.01c0,0,0-.01,0-.02.01-.01.02-.02.03-.03,0-.01.01-.02.02-.04,0,0,0-.02,0-.02,0-.01,0-.02.01-.04,0,0,.01-.02.02-.03.03-.06.05-.13.08-.19.02-.05.05-.1.07-.15,0,0,0,0,0,0,0-.01.01-.02.02-.04,0-.01,0-.02.01-.03,0-.01.02-.02.02-.03,0-.02,0-.04,0-.06,0-.01.02-.02.02-.03,0,0,0-.02,0-.03,0-.01.01-.02.02-.03,0-.02,0-.05.01-.07,0-.02.02-.04.02-.06,0-.02,0-.04.01-.06,0-.02.01-.04.02-.06,0-.02.02-.04.02-.07,0-.01,0-.02.01-.04,0,0,0-.02-.01-.02,0-.03.01-.06.02-.1,0-.03.02-.06.02-.1,0-.01,0-.02,0-.03,0-.03,0-.06.01-.1,0-.02.02-.04.02-.06,0-.01,0-.02,0-.03l.02-.03s0,0,0,0c0,0,0-.01-.01-.02,0-.01,0-.02,0-.03.02-.06.04-.12.06-.19.02-.02.04-.04.05-.06-.02-.01-.04-.03-.05-.04,0-.02,0-.04,0-.06,0,0,0,0,0,0,0,0,0-.01-.01-.02,0-.04,0-.08,0-.12l.02-.03s.01-.02.02-.03c.04-.03.07-.06.11-.09-.03-.02-.05-.05-.08-.07,0-.03,0-.06-.01-.1,0,0,0-.02,0-.03,0-.01.02-.02.03-.04,0,0,.01,0,.01,0,0-.02.01-.03.02-.05h0s0-.01,0-.01c0-.04.02-.08.03-.11,0-.03,0-.05,0-.08,0,0,.01,0,.01,0,0-.02.01-.04.02-.06,0-.02,0-.04,0-.07,0-.01.01-.02.02-.04,0-.01.02-.02.03-.03,0-.01.01-.02.02-.04,0-.02,0-.04,0-.06.03-.06.06-.13.1-.19.03-.05.07-.11.1-.16,0-.01.01-.02.02-.04,0-.02,0-.04,0-.06,0,0,0-.02.01-.03,0-.02.01-.04.02-.07.02-.06.04-.13.06-.19,0-.01,0-.02.01-.03.01-.02.02-.04.03-.06.01-.04.02-.09.04-.13,0,0,0,0,0,0,0,0,0-.01-.01-.02,0-.01,0-.02,0-.03,0-.01.02-.02.03-.03,0-.01,0-.02,0-.03,0-.02.01-.04.02-.06,0-.01,0-.03,0-.04,0-.02.01-.03.02-.05,0-.02,0-.04.01-.07,0,0,0-.02.01-.03l.02-.07s.03-.06.05-.1c0-.01.01-.02.02-.04,0-.02,0-.04.01-.06.03-.13.06-.26.1-.38,0,0,0-.02.01-.03,0,0,0,0,0,0,.04-.09.07-.17.11-.26.15-.02.11-.11.07-.2,0-.01,0-.03,0-.04,0-.01.02-.02.02-.03,0-.01.01-.02.02-.04,0,0,0-.02,0-.02,0-.01,0-.02.01-.04,0-.02.01-.04.02-.06,0-.01,0-.03.01-.04,0-.01.02-.02.02-.04v-.06s.02-.04.03-.06c0-.01,0-.03.01-.04.01,0,.02-.02.03-.02,0-.02.01-.05.02-.07,0-.02,0-.04,0-.05,0-.02,0-.04.01-.06,0-.01.01-.02.02-.04,0-.02,0-.04.01-.06,0-.01.01-.02.02-.04,0-.01.01-.02.02-.03,0-.01.01-.03.02-.04.01-.06.02-.12.04-.18,0-.01,0-.02.01-.03,0-.02.01-.04.02-.07.04-.1.08-.19.12-.29,0,0,0-.02-.01-.03,0-.01,0-.03,0-.04,0-.02.02-.04.02-.05,0-.02,0-.04.01-.06,0-.01.01-.02.02-.04,0-.02,0-.04.01-.06.01-.01.02-.02.03-.03.02-.03.05-.05.06-.08.03-.08.04-.17.09-.23.06-.07.06-.13.03-.21,0-.02,0-.03,0-.05,0-.01,0-.03.01-.04.02-.05.04-.1.06-.15.1-.03.08-.07.03-.13,0-.03,0-.06,0-.09,0-.03.01-.06.02-.1,0,0,.01,0,0,0,0,0,0-.01,0-.02,0-.11-.01-.21-.02-.32,0,0,0-.02,0-.03,0-.05-.01-.11-.02-.16,0-.01-.01-.02-.02-.03,0-.02,0-.04,0-.06,0-.01-.01-.03-.02-.04-.03-.07-.05-.15-.08-.22,0-.01-.01-.02-.02-.03-.02-.05-.04-.11-.07-.16,0-.02,0-.04,0-.06,0-.01-.01-.02-.02-.03,0,0-.01,0-.01,0-.03-.06-.06-.13-.09-.19,0-.01,0-.02,0-.03,0-.01-.01-.02-.02-.03-.02-.03-.04-.06-.06-.09,0-.01,0-.02,0-.03,0-.01,0-.02,0-.03,0-.01-.01-.03-.02-.04,0-.02,0-.03,0-.05-.01-.06-.02-.12-.04-.17-.07-.14-.14-.28-.21-.42-.04-.09-.08-.18-.11-.27,0-.02-.02-.04-.03-.07,0-.02-.01-.04-.02-.07l-.02-.13s0-.01.01-.02c0-.01,0-.03-.01-.04,0-.03-.02-.07-.03-.1,0-.02,0-.03,0-.05,0-.02-.01-.03-.02-.05,0,0-.01,0-.02,0,0-.02,0-.03,0-.05,0,0,0,0,0,0,0-.04,0-.08,0-.12-.02-.05-.03-.1-.05-.14,0-.03,0-.06,0-.1,0,0,.01,0,.01,0,0,0,0,0,0,0,0,0,0-.02,0-.02,0-.02,0-.04-.01-.07,0-.04-.02-.08-.03-.13,0-.11,0-.21,0-.32.13-.03.08-.09.03-.16.01-.09.02-.18.03-.27h0s.03-.09.05-.14c0-.01.01-.02.02-.04,0-.01.02-.02.02-.03,0-.01.01-.02.02-.03.03-.07.06-.15.09-.22,0,0,0,0,0,0,0,0,0-.02.01-.02,0-.01.01-.02.02-.03,0-.01.01-.02.02-.03.01-.02.03-.04.04-.07,0,0,.01-.02.02-.03.01-.02.03-.04.04-.06.04-.05.09-.11.13-.16.02-.02.04-.04.06-.07,0,0,.02,0,.02,0,.18,0,.22-.05.23-.24,0,0,0-.01,0-.02,0,0,.01-.02.02-.02h0s0,0,0,0c0,0,.02-.02.02-.02,0,0,0,0,0,0,0,0,.02-.02.03-.02,0,0,0,0,0,0,.03-.02.06-.04.1-.06.03-.02.06-.05.09-.07.01-.02.02-.03.04-.05.02-.01.04-.02.06-.03.19-.04.36-.11.48-.28.01,0,.02,0,.03,0,.04-.02.09-.04.13-.06.03,0,.06,0,.09,0,.01,0,.02-.01.03-.02.01,0,.02-.01.03-.02.02,0,.03,0,.05,0,.01,0,.03,0,.04-.01.01,0,.03-.02.04-.03.02,0,.03,0,.05,0,.01,0,.03,0,.04-.01.02,0,.04-.01.07-.02.04,0,.08-.02.13-.02.04,0,.08,0,.13,0,.07,0,.15,0,.22,0,.05,0,.11.01.16.02.01,0,.02.01.03.02.04,0,.08,0,.13,0l.03.02s.02.02.03.02c.05,0,.1,0,.16,0,.02,0,.04.01.06.02.02.01.04.02.06.04.02,0,.04,0,.06,0h.01s.02,0,.02,0c.08.03.15.06.23.08.01,0,.02,0,.03,0,0,0,.02.01.03.02.02,0,.04.01.06.02.02,0,.04.02.06.03.02.01.04.02.06.03.01.01.02.02.03.03.01,0,.03.01.04.02,0,0,.02,0,.02,0,.01,0,.02,0,.03.01,0,0,0,0,0,0,.01,0,.02.01.03.02.02.01.05.03.07.04.04.03.08.06.13.08,0,.01.01.02.03.01.01,0,.02.02.04.03,0,0,0,0,0,0,0,0,0,.01,0,.02.03.02.07.05.1.07.04.02.08.05.12.07.01,0,.02.02.03.03.02.02.04.05.07.07,0,0,.02.02.03.02.01.02.03.04.04.06-.06.12.03.1.1.1.03.02.05.04.08.07,0,.01,0,.02.02.02.02.03.05.07.07.1,0,0,.01.02.02.03,0,.01.02.03.02.04h0s.01.02.01.02c.01.02.03.05.04.07.02.03.03.05.05.08.04.09.07.18.11.27.02.05.04.11.05.16,0,.02,0,.04.01.06,0,.01,0,.03,0,.04.03.07.05.14.08.21v.13s.03.02.04.03c0,.03.02.06.02.09,0,0-.02.02-.02.03,0,.03,0,.07,0,.1,0,.02,0,.04-.01.06-.01.01-.03.02-.04.03.02.01.03.02.05.03,0,.01.02.02.03.03,0,.15,0,.29,0,.44,0,.06-.01.13-.02.19,0,.01,0,.02,0,.03,0,0,0,0,0,0,0,0,0,.01.01.02,0,.05-.01.11-.02.16,0,.01,0,.02,0,.03,0,.03-.01.06-.02.09,0,.01-.02.02-.03.04,0,.01,0,.02-.01.04,0,0,0,.01.01.02,0,.02,0,.04-.01.07,0,.02-.01.04-.02.06,0,.01,0,.02,0,.04,0,0,0,.02,0,.02,0,.02-.02.04-.02.07,0,.01-.01.02-.02.03v.04s-.02.02-.02.02c-.01.01-.02.02-.03.04,0,.01-.01.02-.02.03-.01.03-.02.06-.03.09l-.02.03s-.01.02-.02.03c-.03.04-.06.09-.09.13h0s-.01.02-.02.03c-.04.04-.09.09-.13.13-.08-.01-.11.02-.1.1,0,0,0,.02,0,.02,0,0,0,0,0,0,0,0-.02.02-.03.03,0,0,0,0,0,0-.01,0-.02.02-.03.03-.1.06-.19.13-.29.19-.08,0-.19-.04-.18.11,0,0,0,.01,0,.02-.02.01-.05.02-.07.03l-.12.03s-.02.01-.04.02c-.04.02-.09.04-.13.07-.02,0-.04.01-.06.02l-.05.02s-.09.03-.14.04c-.02,0-.04.01-.06.02-.02,0-.04.01-.06.02,0,0-.02,0-.02-.01-.04.02-.09.04-.13.05-.08.01-.17.02-.25.03-.01,0-.02,0-.03,0-.03,0-.06.01-.1.02-.05,0-.1,0-.16,0-.01,0-.02.01-.03.02-.03,0-.06.01-.1.02,0,0-.02.02-.03.02h0s-.02.04-.02.06c0,.01-.02.02-.02.04,0,.01,0,.02-.01.04,0,.04,0,.08,0,.12,0,.02,0,.04,0,.06,0,.06-.01.13-.02.19,0,.02,0,.04,0,.06-.01.06-.02.13-.03.19,0,.01,0,.02,0,.03,0,.04,0,.08,0,.12,0,.02-.01.04-.02.07,0,.01-.02.02-.02.03,0,.03,0,.06,0,.09,0,.03,0,.06,0,.09,0,.01,0,.02,0,.03,0,.02,0,.04,0,.06,0,.03-.01.06-.02.1,0,.01-.01.02-.02.03,0,.03,0,.06,0,.09,0,.02,0,.04,0,.06,0,.01,0,.02,0,.03,0,.02,0,.04,0,.06,0,.01,0,.02-.01.03,0,.01-.01.02-.02.03,0,.02,0,.04,0,.06,0,.03,0,.06,0,.1,0,.02,0,.04,0,.06,0,.04-.02.09-.02.13,0,.02-.01.04-.02.06,0,.05,0,.11,0,.16,0,.01-.01.02-.02.03,0,.03,0,.06,0,.09,0,.03,0,.06,0,.1l-.03.16c0,.05,0,.11,0,.16,0,0,0,.02,0,.03,0,.02,0,.04-.01.06,0,.04-.02.09-.02.13,0,.06,0,.13,0,.19-.01.12-.02.23-.03.35,0,.06,0,.13,0,.19,0,.02,0,.04,0,.07,0,.03,0,.06,0,.09,0,.02,0,.04,0,.06,0,.03-.02.06-.02.1,0,.12-.01.23-.02.35,0,.01-.01.02-.02.03,0,.02,0,.04,0,.06,0,.06,0,.13-.01.19,0,.01-.02.02-.02.03,0,.06,0,.12,0,.19,0,.02-.01.04-.02.07,0,.01-.02.02-.02.03,0,.05,0,.1,0,.15,0,.01,0,.02,0,.03,0,.02-.02.04-.02.07,0,.01,0,.02,0,.04,0,.02,0,.04,0,.05,0,.02-.02.04-.03.07,0,.01,0,.02-.01.03,0,.02-.01.04-.02.06,0,.02-.01.03-.02.05,0,.01,0,.03,0,.04-.04.08-.09.15-.13.23l-.03.03s-.03.02-.05.04c-.08-.01-.12.02-.1.1-.01.02-.02.03-.03.05-.09.13-.17.25-.26.38,0,0-.01,0-.02,0-.08,0-.09.04-.03.09,0,.02,0,.04,0,.06-.01.03-.02.05-.04.08,0,.06-.02.12-.03.18,0,.02,0,.04-.01.06l-.02.06s0,.04-.01.06c0,.02-.01.04-.02.06,0,.02,0,.04-.01.06l-.02.06s0,.04-.01.06c0,.02-.01.04-.02.06,0,.02,0,.04-.01.07,0,.02-.01.04-.02.06,0,.02,0,.05-.01.07,0,.02-.02.04-.03.06-.01.04-.02.08-.04.12,0,.01-.02.02-.02.03,0,.04,0,.08,0,.13,0,0-.01,0-.02,0-.12.01-.05.08-.04.13,0,0,0,.01.01.02,0,.02,0,.05-.01.07,0,.02-.01.04-.02.05,0,.02,0,.04-.01.06-.02.06-.04.13-.06.19,0,.01-.01.02-.02.03,0,.01-.01.03-.02.04,0,.03-.01.06-.02.09,0,.01-.01.02-.02.03,0,.02,0,.04-.01.06,0,.01,0,.03-.01.04,0,0,0,.01.02.02l-.02.07s-.01.04-.02.07c0,0-.01,0-.01,0,0,.01-.02.02-.03.03,0,.06,0,.13,0,.19-.01.02-.03.04-.04.06,0,.01-.02.02-.03.03,0,.01,0,.02,0,.03l-.02.06s0,.03,0,.04c0,.02-.01.04-.02.05,0,.02-.02.04-.03.07,0,.01-.01.03-.02.04,0,0,0,.01.01.02,0,.03,0,.06-.01.09,0,.01,0,.02,0,.03,0,.02-.02.04-.02.06,0,.01-.02.02-.02.04,0,.02,0,.04,0,.06,0,.01,0,.02,0,.03,0,.02-.01.04-.02.07,0,.02,0,.05-.01.07,0,.02,0,.03.01.05-.01.07-.03.15-.04.22,0,.05,0,.11,0,.16,0,.05,0,.11,0,.16,0,.01-.02.02-.03.03,0,.02,0,.04-.01.06,0,.02,0,.04,0,.06,0,.03,0,.06,0,.1,0,.01-.02.02-.03.03h0s-.01,0-.01,0c0,0,0,.02,0,.02-.01.05-.02.11-.03.16,0,0,0,0,0,0,0,0,0,.01.01.02v.03s0,.06-.02.1c0,.01,0,.02,0,.03,0,.02-.01.04-.02.06,0,.02,0,.04,0,.07,0,.02-.01.04-.02.06,0,.02,0,.04-.01.06,0,.02-.02.04-.02.06,0,.01-.01.02-.02.03,0,.01-.01.03-.02.04,0,.03,0,.05,0,.08,0,.01,0,.02-.01.03-.01.01-.02.02-.03.04,0,.01-.01.03-.02.04,0,0,0,.01.01.02,0,.01-.02.02-.03.04,0,.01-.01.03-.02.04,0,.02,0,.04,0,.06h0c-.02.06-.05.13-.07.19l-.06.13v.03s-.03.04-.04.06c0,.01-.01.03-.02.04-.01,0-.01.01-.01.03,0,.01-.01.03-.02.04l-.07.14-.03.05s0,.02-.01.03c0,.01-.01.02-.02.03,0,.01,0,.02-.01.03,0,0-.01.02-.02.03,0,.02-.01.04-.02.06,0,.01-.01.02-.02.04,0,.01-.01.02-.02.03,0,.01-.01.02-.02.04,0,.03,0,.06,0,.08v.03s-.03.05-.04.07c0,.01,0,.02-.01.04h0c-.15.02-.09.09-.03.15-.01.06-.02.13-.03.19,0,.01,0,.02,0,.03,0,.01-.01.02-.02.03l-.02.03s0,.04,0,.06c0,.06-.01.13-.02.19,0,.01-.01.02-.02.03,0,.1,0,.21,0,.31,0,.01,0,.02,0,.03,0,.03,0,.06-.01.1,0,0,0,0,0,0,0,0,0,.01,0,.02,0,.05,0,.11.01.16,0,.01,0,.02,0,.03,0,.03,0,.06,0,.09,0,.03,0,.06,0,.1l.02.03c0,.06,0,.13.01.19,0,.01.01.02.02.03,0,.01.01.02.02.03,0,.01.01.02.02.03,0,.02,0,.04,0,.06h0s-.02.01-.02.02h.02s0,.03.01.04c0,0,0,.02-.01.03,0,.01,0,.02.01.03,0,.02.02.04.03.07,0,0,0,.02-.01.03,0,.01,0,.02.01.03,0,.02.02.04.03.07,0,0,0,.02,0,.03,0,.01.01.02.02.03,0,.01.01.02.02.03,0,.02,0,.04,0,.06,0,.02.02.04.02.07,0,0,.01,0,.01,0,0,0,0,.02,0,.03,0,.01.01.02.02.04,0,.01.01.02.02.03,0,.01.01.03.02.04,0,.02.01.04.02.06,0,.02.01.04.02.06,0,.01,0,.03.01.04,0,.02.01.04.02.06,0,.02,0,.04,0,.06,0,.07-.09.17.06.2,0,.01.02.02.03.03,0,.02,0,.04,0,.07,0,.02.01.04.02.06.02.05.04.11.05.16,0,.02.01.04.02.06,0,.02,0,.04,0,.06,0,.02.01.04.02.06v.06s.03.06.03.09c0,.01,0,.03,0,.04,0,.03.02.06.02.09,0,.01,0,.02,0,.04,0,.02.02.04.02.06,0,.02,0,.04,0,.06,0,0-.01,0,0,0,0,0,0,.01,0,.02,0,.06.01.13.02.19,0,.16,0,.32,0,.48,0,.04,0,.08,0,.13,0,.02,0,.04,0,.06,0,.03,0,.06-.01.09,0,.03-.01.06-.02.1,0,.02-.02.05-.03.07,0,.01,0,.03-.01.04,0,.02,0,.03.01.05,0,.02-.01.04-.02.06,0,.06,0,.13,0,.19,0,.02.01.04.02.06,0,0,0,.02.01.03,0,.01.01.02.02.04,0,0,0,.01,0,.01h.01s.05.03.07.05c0,0,.01,0,.02.01.03.03.07.05.1.08.03.03.05.06.08.09h0s0,0,0,0c0,.01.01.03.02.04,0,0,0,.01,0,.01h.01s.01.04.02.05c0,0,0,0,0,.01,0,0,0,.01.01.02,0,.02,0,.04,0,.06,0,.01,0,.02,0,.03,0,.13,0,.25-.01.38-.09.05-.09.11,0,.16,0,.12,0,.23,0,.35,0,0,0,0,0,0,0,0,0,.01.01.02,0,.13,0,.25.01.38,0,.06-.02.13-.03.19v.03s0,.06,0,.1c0,.04-.02.08-.03.13,0,.03,0,.06,0,.1-.01.05-.02.11-.03.16,0,.02,0,.04,0,.06,0,.01,0,.02,0,.03-.01.02-.02.05-.03.07,0,.01,0,.02,0,.03,0,0,0,.02.01.03-.01.02-.02.05-.03.07,0,.01,0,.02-.01.03,0,0,0,.02,0,.03,0,.02,0,.04-.01.06,0,.02-.02.04-.02.06,0,0,0,.02,0,.03,0,.01,0,.02-.01.03-.02.05-.03.1-.05.16,0,.02-.02.05-.03.07-.01.02-.02.04-.03.06h0s-.02.02-.02.03c-.01.05-.03.11-.04.16,0,.03-.02.06-.03.09,0,0-.02,0-.02,0,0,.01-.01.03-.02.04,0,0,0,.02.01.02v.1s-.03.04-.03.06c0,.03-.01.06-.02.1,0,.01-.01.02-.02.03,0,.02,0,.04,0,.06v.16c0,.07,0,.15,0,.22v.06s-.04.02-.06.03c.02.01.03.02.05.03h0s.02.02.02.03c0,.02.01.04.02.06,0,.03.02.06.02.09,0,.02,0,.04,0,.06,0,.02.01.04.02.07,0,.02.01.04.02.06,0,.02.01.04.02.06,0,.01,0,.03.01.04,0,.01.01.02.02.03,0,.01,0,.02.01.03,0,.01.01.02.02.03,0,0,0,.02.01.03,0,.01.01.02.02.03.01.03.02.06.04.09-.01.04-.05.1-.04.1.06.03.13.06.19.09.02.01.03.02.05.03,0,0,.01.01.02.02h0s0,0,0,0c0,0,.01.01.02.02.01.02.02.03.03.05,0,.06-.01.15.1.09,0,0,.02,0,.03,0,.01,0,.02.02.03.03.01.01.03.02.04.03,0,0,.01.01.02.02.06.05.11.09.17.14.07.06.14.13.22.19.01,0,.02.02.03.03.03.03.06.07.09.1l.03.03s.04.05.06.08c.03.04.05.07.08.11,0,0,.01.02.02.03.01.02.03.05.04.07,0,.01.02.02.02.03,0,0,0,.02.01.03,0,.01.01.02.02.04,0,.03,0,.05,0,.08,0,.01.01.03.02.04,0,.02.01.04.02.06,0,.01,0,.02,0,.03,0,.07-.01.15-.02.22,0,.01-.01.03-.02.04,0,0,0,.01.01.02,0,.03-.02.07-.03.1,0,0,0,0,0,0,0,0,0,.01,0,.02,0,0,.01,0,.01,0,.01.04.02.08.03.13,0,.09,0,.17.13.1.02,0,.03,0,.05,0,.04.03.07.06.11.08,0,.04,0,.08.01.14.05-.03.08-.05.11-.08.01,0,.02,0,.03,0,0,0,0,.01,0,.01.01,0,.02.01.04.02,0,0,.02,0,.03.01,0,0,.02.01.03.02.01,0,.03,0,.04,0,.04.02.08.04.12.06.05.03.11.06.16.1,0,.14.2.24.38.18.04.01.08.03.12.04.08.04.17.09.25.13.01,0,.03.02.04.02,0,0,0,0,0,0,0,0,0,.01,0,.01h.01s.03.01.04.02c0,0,.02.01.03.02.01,0,.02,0,.03.01,0,0,0,.02,0,.02.03.19.16.21.32.19,0,0,.02,0,.03,0,.04.03.08.07.13.1l-.07.13s.02.03.03.04c.06-.02.13-.05.19-.07.07.05.13.1.2.15,0,.1.06.11.13.1.04.02.08.04.12.07.01.02.02.04.04.05.03.02.06.04.08.06.01,0,.03,0,.04.01.02.02.04.04.07.06,0,0,0,0,0,0,0,0,.02.02.03.03,0,0,0,0,0,0,0,0,.02.02.03.02h0s0,0,0,0c0,0,.01,0,.02.01.11.11.21.22.32.33-.05.13,0,.21.14.22.03,0,.05,0,.08.01,0,0,.01,0,.02,0,0,0,.01.01.02.02h0s0,.01,0,.01c0,0,0,.01,0,.02-.01.08.01.12.1.11h.01s.01,0,.01,0c0,0,0,0,0,0,0,0,.02.02.03.03,0,0,0,0,0,0,0,.01.02.02.03.03.1.11.2.21.3.32.03.03.06.06.08.09,0,0,0,0,0,0,0,0,.02.02.03.03,0,0,0,0,0,0,0,0,.02.02.03.03.02.02.05.05.07.07.03.03.06.06.09.09,0,0,0,.02,0,.03,0,.13.02.14.12.11.06.04.13.08.19.12,0,0,.02.01.03.02.02.01.05.03.07.04,0,0,.02.01.03.02.01,0,.02,0,.03.01.01,0,.02.01.03.02.03.01.06.03.09.04.01,0,.03.01.04.02.01,0,.02,0,.03,0,.02.01.04.03.07.04.01,0,.02.01.03.02.03,0,.06,0,.09.01,0,0,.01.02.02.02,0,.02-.02.03-.02.05.03-.01.05-.02.08-.03.02,0,.04,0,.06,0,.01,0,.02.02.04.03.02,0,.04.01.05.02.01,0,.03,0,.04,0h.03s.09.05.13.06c.04.02.08.04.13.06,0,0,0,0,0,0,.01.01.02.02.03.04,0,.11.07.09.14.08l.15.09s.04.03.07.04c0,0,.02.02.03.02.03.02.07.05.1.07.03.02.06.04.09.07.02.02.05.04.07.06,0,0,.02.02.03.02,0,0,0,.01,0,.02,0,0,.02.02.03.02.02.01.05.02.07.03,0,0,0,.02,0,.02l.09.07s.02,0,.03,0c.01,0,.02.02.03.02.03.02.06.05.09.07l.07.07s.02.02.03.02c.02.01.05.02.07.03.04.03.08.06.12.09.04.04.09.08.13.12.03.02.06.05.09.07.03.01.05.03.08.04.03.02.05.04.08.06,0,0,.02.01.03.02.02.01.04.03.06.04.01,0,.02.02.03.03,0,0,0,0,0,0,0,0,.02.01.03.02.02.02.04.05.07.07-.01.17.1.17.22.16.01,0,.02,0,.03,0,.03.02.06.05.09.07.02.03.05.05.07.08,0,.04.02.09.02.13l.1-.04h.01s.01,0,.01,0c.02.02.04.03.07.05,0,0,.02.02.03.02.03.02.07.05.1.07.01,0,.02.02.03.03,0,0,0,0,0,0,0,0,.01.01.02.02.01,0,.02.01.03.02.01,0,.02.02.03.03,0,0,0,0,0,0,0,0,0,.02,0,.02,0,.1.06.11.14.1.02,0,.03,0,.05.01.01,0,.02.02.03.03.01,0,.02.02.03.03,0,0,0,0,0,0,0,0,.02.01.02.02.02.02.04.03.07.05.06.05.12.09.19.14.03.03.07.06.1.09.05.17.14.24.32.24.02.01.05.02.07.03,0,0,.02.01.02.02.02.02.04.03.06.05.01,0,.02.02.03.03,0,0,0,0,0,0,0,0,.02.02.03.02,0,0,0,.01,0,.02.01,0,.02.02.03.02.02.01.04.02.07.03.01,0,.02.02.03.02,0,0,0,0,0,0,0,0,.01.01.02.02.02.02.04.03.06.05l.25.22c0,.12.07.13.16.12.03.02.06.03.09.05.03.03.07.06.1.1.03.02.06.05.09.07.01,0,.02,0,.03,0,.01,0,.02.02.03.03,0,0,0,0,0,0,0,0,.02.01.02.02.05.04.09.07.14.11h0s.01.01.01.01c.04.04.09.08.13.12,0,0,.02.01.03.02.02.01.05.02.07.03.02.02.04.05.07.07,0,0,.02.01.03.02.02.01.04.02.07.03.01,0,.02.02.03.03.01.01.03.02.04.03,0,0,.01.01.02.02.02.02.05.04.07.06,0,.01.02.03.03.04.03.02.06.05.09.07.02,0,.04.02.07.03.01.01.03.02.04.03,0,0,.01.01.02.02.02.02.04.03.06.05.02.02.04.04.07.06.08.06.15.13.23.19,0,0,.02.01.02.02.04.04.09.07.13.11.01,0,.02.02.03.03,0,0,0,0,0,0l.02.02s.06.05.1.08c.02.03.05.06.07.08,0,.16.1.19.22.2,0,0,.02,0,.03,0,.04.04.08.07.12.11,0,0,0,.02,0,.03,0,0,.02.02.03.03.09.07.17.15.26.22,0,0,.02.02.03.03,0,0,0,0,0,0,0,.01.02.02.03.03.04.04.07.09.11.13l.02.03s.02.05.03.08c0,.02.01.03.02.05.01.02.03.04.04.07,0,.01,0,.02,0,.03,0,.03,0,.06,0,.09,0,.01,0,.03.01.04,0,.03.01.06.02.1,0,.04,0,.07,0,.11,0,.02,0,.03.01.05.02.02.05.05.07.07.01,0,.02.01.03.02.01,0,.02,0,.03,0,.07.04.15.08.22.13.06.04.13.07.19.11,0,0,.02.01.03.02h0c.01.13.1.07.16.06.02,0,.04.01.06.02.01,0,.03,0,.04.01.05.01.1.02.14.03.08-.01.17-.02.25-.03.02,0,.04,0,.06,0,.02,0,.04,0,.07,0,.02,0,.04-.01.06-.02.08-.03.17-.07.25-.1.11.07.15.02.16-.09,0,0,0-.02,0-.02,0,0,0,0,0,0,.02-.01.04-.02.06-.03.01,0,.02-.01.04-.02,0,0,0,.01.01.01.24.04.34-.01.36-.2,0,0,0-.01,0-.02.01,0,.03,0,.04-.01.01,0,.02-.01.03-.02l.13-.04s.04-.01.06-.02c.06.01.13.02.19.03.06.13.04.23-.1.29,0,0-.02.01-.03.02-.13.08-.26.16-.38.23,0,0-.02.01-.03.02-.02.01-.04.03-.06.04-.06.01-.13.03-.19.04.01.05.02.08.02.11-.01.02-.02.05-.03.07,0,0-.01.02-.02.03,0,0,0,.02-.01.03,0,.01-.02.02-.02.04,0,0-.01,0-.01,0-.12.01-.1.06-.04.13h.01s.02.04.03.06c.01.01.02.02.03.04,0,0,.02.02.03.02,0,.01.01.02.02.01.07.03.13.06.2.09.09.09.17.1.25,0,.51,0,1.01,0,1.52-.01.04,0,.08,0,.12,0,.01,0,.02,0,.04-.01.16-.05.32-.1.48-.15.01,0,.02-.01.04-.02.01,0,.02,0,.03,0,.01,0,.02-.02.03-.02,0,0,.02,0,.03-.01,0,0,.01,0,.02,0,.16.04.31-.07.32-.22.01-.01.02-.03.03-.04.01,0,.02-.01.03-.02.02,0,.04,0,.05,0,.01,0,.02-.01.04-.02.01,0,.02-.02.03-.02,0,0,.02,0,.02,0,.05-.01.14.1.16-.04,0,0,0-.01,0-.02.12,0,.23,0,.35,0,.02,0,.04.01.06.02.03,0,.06.02.1.03.01,0,.02,0,.04.01.03,0,.06,0,.09,0,.02,0,.04.02.07.02,0,0,0,.01,0,.01l.04.02s.04,0,.06,0h0s.02.02.03.02c.02,0,.04.02.07.03-.01.09.03.14.12.14,0,0,.01,0,.01,0,0,.03,0,.06,0,.1,0,.03-.02.07-.03.1,0,.01-.01.02-.02.03,0,0,0,.02,0,.03,0,.01,0,.02,0,.03,0,.01-.01.02-.02.03,0,0,0,.02-.01.03,0,.01-.02.02-.03.04-.04.04-.09.08-.13.13-.04.02-.14-.04-.09.08,0,.01,0,.02-.02.02-.05,0-.12,0-.14.02-.03.03-.02.1-.03.15,0,0,0,.01,0,.02,0,0,0,0,0,0,0,0-.02.02-.02.02,0,0,0,0,0,0,0,0-.02.02-.02.02,0,0,0,0,0,0,0,0-.02.02-.03.02,0,0,0,0,0,0-.03.03-.06.06-.09.09,0,0,0,0,0,0,0,0-.01,0-.02,0-.12-.01-.18.04-.17.16-.03.04-.07.08-.1.12-.01.01-.02.02-.03.03-.08.06-.15.13-.23.19,0,0-.02.02-.03.03,0,0,0,.01,0,.02-.06.05-.11.1-.17.15-.02.01-.04.02-.06.03,0,0-.02.02-.03.03,0,0,0,0,0,0,0,0-.02.01-.02.02,0,.01-.01.02-.02.02-.08,0-.15,0-.13.11,0,0,0,.01,0,.02-.11.08-.22.16-.33.25-.03.02-.06.04-.1.07,0,0-.02.01-.03.02-.07.05-.15.1-.22.14-.01,0-.02.01-.03.02,0,0-.02.01-.03.02-.05.03-.11.05-.16.08,0,0-.02,0-.02.01-.01,0-.03.01-.04.02,0,0-.02.01-.03.02-.03.01-.07.03-.1.04-.02,0-.04.02-.06.02-.01,0-.03,0-.04.01-.01,0-.02,0-.03.01-.02,0-.04,0-.06,0-.01,0-.02.01-.04.02,0,0,0,.01,0,.02-.12.06-.25.13-.37.19,0,0,0,0,0,0-.01,0-.02.02-.04.02-.01,0-.02.01-.03.02,0,0-.01,0-.01,0h0s-.05.04-.07.06c0,0-.02.01-.02.02-.01,0-.02,0-.03,0-.09,0-.22-.05-.19.14,0,0,0,.01,0,.02-.02.02-.05.03-.07.05,0,0-.02.01-.02.02,0,0,0,0,0,0-.01,0-.02.02-.03.03-.01,0-.02,0-.03,0,0,0-.02.01-.03.02,0,.01-.01.02-.02.01-.18-.07-.2-.05-.2.19,0,.01,0,.02,0,.03,0,0-.01.02-.02.03-.05.05-.09.11-.14.16-.03.03-.06.06-.1.09-.02.02-.04.04-.06.05-.03.02-.06.05-.09.07-.04.02-.09.04-.13.06-.15.05-.31.09-.46.15-.02,0-.02.06-.03.1-.01.01-.03.03-.04.04-.02,0-.04,0-.06,0-.01,0-.02.01-.03.02-.01,0-.02.02-.04.03,0,0-.02,0-.03,0-.01,0-.02.01-.04.02-.01,0-.03.02-.04.03-.05,0-.1,0-.15,0-.02,0-.04,0-.06-.01-.01,0-.02-.01-.03-.02,0,0-.02,0-.03-.01-.01,0-.02-.02-.04-.03l-.07-.07s-.02-.02-.03-.03c0-.01-.01-.02-.02-.03,0,0-.01-.02-.02-.02,0-.01-.01-.03-.02-.04,0,0,0-.02-.01-.02,0-.01-.01-.03-.02-.04,0,0,0-.02-.01-.03,0-.01,0-.02-.01-.03,0-.01-.01-.02-.02-.03,0-.02,0-.04,0-.06,0-.01-.01-.02-.02-.03,0-.01,0-.02-.01-.03,0-.01-.01-.02-.02-.03,0,0-.01,0-.01,0-.03-.07-.06-.14-.1-.21,0-.01-.01-.03-.02-.04,0,0,0-.01,0-.01h-.01s-.01-.04-.02-.05c0,0,0-.01,0-.01h-.01c-.02-.06-.04-.12-.06-.17,0-.01-.01-.02-.02-.03,0,0-.01,0-.02,0,0,0,0-.02,0-.03.05-.1.06-.18-.09-.16l-.07-.1s-.01-.02-.02-.03c0-.01-.01-.02-.02-.03,0,0,0-.01-.01-.02l-.11-.17s-.01-.02-.02-.03l-.04-.09s.02-.03.03-.04c-.03,0-.05-.02-.08-.03,0,0,0,0,0,0,0-.01-.02-.02-.02-.03,0,0-.01,0-.02,0,0-.02-.01-.04-.02-.06.01-.02.03-.04.04-.05-.04-.02-.08-.03-.12-.05,0,0-.02,0-.02,0-.04-.05-.08-.11-.13-.16-.05-.06-.11-.12-.16-.18-.07-.09-.15-.18-.22-.26,0-.09-.04-.13-.13-.12-.06-.04-.11-.09-.17-.13,0,0-.01-.01-.02-.02l-.13-.11s-.02-.02-.03-.03c0,0,0,0,0,0,0,0,0-.01,0-.02-.03-.02-.06-.05-.09-.07,0,0-.02,0-.03,0-.01,0-.02-.02-.03-.03,0,0,0,0,0,0-.02-.01-.04-.03-.06-.04-.01,0-.02-.02-.03-.02,0,0-.02-.01-.03-.02-.02-.01-.04-.03-.06-.04-.01,0-.02-.02-.04-.03,0,0,0,0,0,0,0,0-.02-.01-.02-.02-.02-.02-.05-.03-.07-.05,0,0,0-.01,0-.02,0-.13-.06-.14-.16-.11-.09-.05-.19-.1-.28-.15-.13-.07-.25-.14-.38-.21-.02-.01-.05-.03-.07-.04h0c0-.06,0-.11-.01-.17-.06.03-.1.04-.14.06-.01-.08-.03-.17-.13-.06-.06-.04-.13-.07-.19-.11,0,0-.02-.01-.03-.02-.09-.04-.18-.09-.27-.13-.04-.02-.07-.04-.11-.06h0s0-.02,0-.02c-.01-.04-.02-.08-.03-.13-.03.02-.06.04-.09.05-.01,0-.02,0-.03,0-.03-.02-.06-.04-.1-.06-.01,0-.03-.02-.04-.03,0-.01,0-.02-.02-.02-.1-.07-.19-.14-.29-.21-.04-.03-.08-.06-.13-.09,0,0,0,0,0,0-.05-.04-.1-.08-.16-.12-.05-.03-.09-.07-.14-.1-.01-.01-.03-.03-.04-.04-.01-.02-.02-.03-.03-.05.01-.02.02-.04.04-.07-.05,0-.09,0-.14,0-.01,0-.02-.02-.04-.03.02-.16-.08-.17-.2-.16,0,0-.02,0-.03,0,0,0,0,0,0,0,0,0-.02-.01-.02-.02-.13-.09-.26-.19-.39-.28.02-.19-.12-.13-.21-.15-.09-.17-.23-.23-.42-.22-.03-.01-.06-.02-.09-.03l-.22-.13c-.05-.03-.11-.06-.16-.09,0,0,0,0,0,0,0,0-.02-.01-.03-.02-.02-.02-.04-.04-.07-.05,0,0-.02-.01-.03-.02-.03-.01-.06-.02-.09-.03-.12-.07-.24-.14-.35-.22,0,0,0,0,0,0,0,0-.02-.01-.03-.02-.02-.02-.04-.04-.07-.06,0,0-.02-.01-.03-.02-.05-.02-.09-.04-.14-.06,0,0-.02-.01-.02-.02-.05-.04-.11-.09-.16-.13,0-.14-.1-.13-.19-.13-.02-.01-.05-.02-.07-.03,0,0-.02-.01-.03-.02-.02-.02-.04-.03-.06-.05,0,0,0-.02,0-.03,0-.1-.03-.18-.16-.13-.01,0-.02,0-.03,0l-.03-.03s-.03-.02-.04-.03c0,0-.01-.01-.02-.02-.05-.04-.09-.07-.14-.11,0,0,0-.01,0-.02,0-.1-.05-.11-.13-.1-.01,0-.02,0-.02-.01,0,0-.02-.01-.02-.02-.04-.02-.07-.04-.11-.06,0,0-.02-.02-.03-.02,0,0,0,0,0,0,0,0-.01-.01-.02-.02-.04-.04-.09-.08-.13-.12,0,0-.02-.02-.03-.02-.02-.01-.04-.02-.07-.03-.01,0-.02-.02-.03-.03-.06-.04-.11-.09-.17-.13,0,0,0-.01,0-.01h-.01s-.04-.03-.07-.05c-.03-.02-.06-.05-.09-.07-.05-.04-.11-.09-.16-.13,0,0-.02-.01-.03-.02-.01,0-.02,0-.03,0,0,0-.02-.01-.03-.02-.02-.01-.05-.03-.07-.04,0,0-.02-.01-.02-.02-.03-.02-.06-.03-.1-.05-.01,0-.02-.01-.03-.02-.01,0-.02,0-.03-.01-.04-.02-.08-.04-.13-.06-.05-.02-.11-.04-.16-.06l-.03-.03s0,0,0,0c-.02,0-.04-.02-.06-.02-.01,0-.02,0-.03-.01-.01,0-.02-.01-.03-.02-.02,0-.04-.01-.06-.02-.01,0-.03-.01-.04-.02-.04-.01-.08-.03-.13-.04-.03-.01-.06-.02-.09-.03,0,0,0-.01,0-.01-.01,0-.02-.01-.03-.02-.02,0-.04-.01-.06-.02-.02,0-.03-.01-.05-.02-.01,0-.03,0-.04-.01-.01,0-.03,0-.04-.01-.02,0-.03,0-.05,0-.02,0-.04-.01-.06-.02-.03-.02-.07-.03-.1-.05h0s-.02-.04-.03-.06c0,.02-.02.03-.03.05,0,0,0,.01,0,.02-.04,0-.09,0-.13-.01-.01,0-.02-.02-.03-.02-.01,0-.02-.02-.03-.02-.01,0-.02,0-.04-.01-.02,0-.04,0-.06,0-.01,0-.02-.01-.03-.02-.01,0-.03-.01-.04-.02-.02,0-.04,0-.05,0-.02,0-.04-.01-.07-.02-.01,0-.03-.01-.04-.02,0,0-.01,0-.02.01l-.1-.03s-.04-.01-.06-.02c-.03,0-.06,0-.09,0-.02,0-.04-.01-.06-.02-.02,0-.04,0-.06,0-.06-.01-.13-.02-.19-.03-.05-.01-.1-.02-.16-.04-.01,0-.02-.02-.03-.02-.03,0-.06,0-.09,0-.01,0-.02-.02-.03-.02-.01,0-.02,0-.03,0-.01,0-.02,0-.03-.01-.02-.01-.05-.02-.07-.03-.01,0-.02-.01-.04-.02,0,0-.02,0-.02,0-.02,0-.04,0-.07-.01-.02,0-.04-.02-.06-.02-.01,0-.02-.01-.03-.02-.01,0-.02-.01-.03-.02,0,0-.02,0-.03,0h-.06s-.02-.02-.04-.03c-.02,0-.04-.01-.07-.02-.01,0-.02-.02-.03-.02-.01,0-.02,0-.03,0-.01,0-.02,0-.03,0h0s-.02-.03-.04-.04c-.06-.02-.13-.04-.19-.06-.03-.01-.06-.02-.09-.04-.01,0-.02-.01-.03-.02-.04-.02-.08-.03-.12-.05-.01,0-.02-.01-.04-.02,0,0-.02,0-.03-.01,0,0,0-.02,0-.02-.02,0-.04-.02-.06-.03-.04-.01-.08-.03-.12-.04,0,0,0,0,0,0,0,0-.02-.01-.03-.02-.01-.01-.03-.02-.04-.04,0,0-.01,0-.02,0-.01,0-.02,0-.04,0,0,0-.02-.01-.03-.02h-.03s-.02-.04-.03-.05c0-.17-.1-.11-.19-.09-.09-.04-.17-.07-.26-.11-.01,0-.02-.01-.03-.02,0,0-.02,0-.03,0,0,0-.02,0-.03,0-.01,0-.02-.01-.03-.02-.01,0-.02,0-.04-.01-.05-.02-.1-.04-.16-.06,0,0-.02,0-.03,0-.01,0-.02-.01-.03-.02h-.06s-.02-.03-.04-.03c-.02,0-.04-.01-.06-.02,0,0,0-.02,0-.02-.01-.07-.04-.09-.09-.03-.02,0-.04-.01-.06-.02-.01,0-.02-.01-.03-.02-.08-.02-.16-.04-.24-.07-.01,0-.02,0-.04-.01-.05-.02-.11-.03-.16-.05l-.03-.03h0s-.03-.02-.04-.03c-.01,0-.02,0-.02,0-.02,0-.04-.02-.06-.03-.01,0-.02,0-.03,0-.01,0-.02,0-.03,0,0,0-.02-.01-.03-.02-.02,0-.04-.01-.06-.02-.01,0-.02-.01-.03-.02-.01,0-.02-.02-.03-.03-.01,0-.02-.01-.03-.02-.04-.01-.08-.02-.12-.03,0,0,0-.01,0-.02-.01,0-.02,0-.04-.01-.02,0-.04,0-.06,0,0,0,0,0,0,0-.04-.02-.08-.04-.13-.05,0,0-.02,0-.03,0-.01,0-.02-.01-.03-.02-.04-.02-.08-.03-.13-.05-.01,0-.02-.01-.03-.02-.02,0-.04-.01-.06-.02l-.33-.16s-.04-.02-.06-.03c0,0-.02,0-.03,0-.01,0-.02,0-.03-.01-.05-.02-.11-.04-.16-.07-.04-.02-.09-.05-.13-.07-.01,0-.02-.01-.03-.02-.02,0-.04,0-.06,0-.01,0-.02-.01-.04-.02-.01,0-.02,0-.03-.01-.01,0-.02-.01-.03-.02-.01,0-.02,0-.04-.01,0,0-.02,0-.03-.01,0,0,0-.01,0-.02-.02-.04-.04-.08-.06-.12-.02.02-.04.04-.06.06-.02,0-.04,0-.06,0-.03-.02-.06-.04-.1-.06-.02-.01-.04-.02-.06-.03-.01,0-.02,0-.03,0h-.01s-.02,0-.02,0c-.04-.02-.09-.04-.13-.06,0,0,0-.01,0-.01-.01,0-.02-.01-.03-.02-.01,0-.02,0-.03-.01-.01,0-.02-.01-.03-.02-.02,0-.04,0-.05,0-.01,0-.02-.01-.04-.02-.03-.01-.06-.03-.1-.04,0,0-.02-.01-.03-.02-.01,0-.03,0-.04-.01,0,0-.02,0-.02-.01-.04-.02-.08-.03-.13-.05-.01,0-.02-.01-.03-.02-.01,0-.02,0-.03,0,0,0-.02-.01-.03-.02-.09-.04-.17-.07-.26-.11,0,0-.02,0-.03-.01-.01,0-.03-.01-.04-.02-.02,0-.04-.02-.06-.02-.01,0-.02-.01-.03-.02-.01,0-.02-.02-.03-.03,0,0,0,0,0,0,0,0-.02,0-.03,0-.02,0-.03,0-.05.01-.02-.01-.03-.02-.05-.03,0,0,0-.01,0-.01-.09-.15-.19-.06-.29-.02-.05.01-.1.02-.16.03-.06.02-.13.04-.19.06-.02,0-.04.02-.06.03-.04.02-.08.04-.13.06,0,0-.02,0-.03.01-.01,0-.03.01-.04.02-.02,0-.04,0-.05,0-.01,0-.02.01-.03.02-.01,0-.02.02-.03.03-.1.05-.19.1-.29.14-.01,0-.02,0-.03.01-.01,0-.02.01-.04.02-.17.08-.34.16-.5.24,0,0-.02,0-.03.01,0,0,0,0,0,0-.02,0-.04,0-.05,0-.07-.04-.11-.04-.11.06,0,0,0,.01,0,.02-.13.06-.27.11-.4.17-.01,0-.02.01-.04.02,0,0-.02,0-.03,0-.01,0-.02.01-.03.02-.01.01-.02.02-.04.03,0,0-.01,0-.02,0-.03-.02-.06-.04-.09-.06l-.04.12s0,.01,0,.02c0,0,0,0,0,0-.04.01-.08.03-.12.04-.03-.02-.09-.06-.09-.06-.08.08-.26.05-.26.22-.02.02-.04.03-.06.05-.01,0-.03.01-.04.02,0,0,0-.01-.01-.02-.05.02-.09.04-.14.07-.01.01-.02.02-.03.03-.01,0-.03.01-.04.02h-.02s-.01,0-.01,0c-.01,0-.03.01-.04.02-.04.02-.08.03-.12.05,0,0-.02.01-.03.02-.04.02-.09.04-.13.06-.07.03-.15.07-.22.1-.02,0-.03,0-.05,0-.06-.03-.11-.05-.11.05,0,0,0,.01,0,.01-.01,0-.03.01-.04.02-.02,0-.04.01-.06.02,0,0-.02.01-.03.02-.03.01-.06.03-.1.04-.04.01-.08.02-.12.03l-.06-.03s-.02.05-.03.07c-.01,0-.02,0-.04.01-.01,0-.02,0-.03.01-.01.01-.02.02-.04.03-.01,0-.02.01-.03.02,0,0-.02,0-.02,0,0,0-.01.01-.01.01-.01,0-.02,0-.03,0l-.03.02s-.02.02-.03.03c-.01,0-.02.01-.03.02-.02,0-.04,0-.06,0,0,0-.02.01-.03.02-.01,0-.02.02-.03.03-.01,0-.02.01-.03.02-.02,0-.04.01-.06.02,0,0-.02,0-.03.01-.01,0-.02,0-.04.01-.01,0-.02.01-.03.02-.02,0-.04.01-.06.02,0,0-.02,0-.03.01-.04.02-.09.04-.13.05,0,0-.02,0-.03,0-.03.01-.06.02-.09.04-.04.02-.09.04-.13.06-.02,0-.04.01-.06.02,0,0-.02.01-.03.02-.01,0-.02,0-.03,0-.01,0-.03.01-.04.02-.02,0-.04.01-.06.02-.01,0-.02.01-.03.02-.01,0-.02,0-.03.01-.02,0-.04.02-.05.02,0,0,0,0,0,0-.05.02-.1.04-.15.06-.02,0-.03.01-.05.02,0,0-.01,0-.01,0h0s-.09.04-.13.05c-.02,0-.04.02-.06.03,0,0,0,0,0,0-.01,0-.02.01-.03.02,0,0,0,.01,0,.01-.02,0-.04,0-.05,0-.09-.02-.2-.09-.2.09,0,0,0,.01,0,.02,0,0-.02,0-.02.01-.01,0-.02.01-.04.02-.1.05-.19.09-.29.14-.01,0-.02,0-.03.01,0,0-.02,0-.03,0-.02-.02-.04-.04-.05-.06-.02.04-.03.07-.05.11l-.15.1s-.05.02-.07.04c-.01,0-.02.01-.04.02h-.03s-.02.03-.03.03c-.04.02-.08.05-.13.07-.01,0-.02.02-.04.02,0,0-.02,0-.03.01-.01,0-.02.01-.03.02,0,0,0,0,0,0-.06.04-.13.08-.19.12-.07.05-.15.09-.22.14,0,0-.01.01-.02.02-.03,0-.05.02-.07.03,0,0-.02.01-.03.02-.03.03-.06.06-.1.09,0,0-.02.01-.03.02,0,0,0,0,0,0-.01,0-.03.02-.04.03,0,0-.02,0-.02.01-.05.04-.11.07-.16.11,0,0,0,0,0,0-.02.02-.04.04-.07.06-.02,0-.04,0-.06.01-.02.02-.04.03-.07.05-.01,0-.02.01-.03.02,0,0-.02.01-.03.02-.02.01-.04.03-.07.04-.01,0-.02.01-.03.02-.01,0-.02,0-.03,0,0,0-.02.01-.03.02,0,0,0,.01,0,.01-.01,0-.03.02-.04.02-.08.05-.16.1-.23.14,0,0,0,0,0,0-.01,0-.02.01-.03.02-.01,0-.03.02-.04.03-.01,0-.02,0-.03,0-.04.02-.08.05-.12.07-.02.02-.04.04-.07.06l-.1.06h-.01s0,0,0,0c-.02.01-.04.02-.06.03-.01,0-.02,0-.04,0-.01,0-.02.01-.04.02-.03.02-.06.05-.09.07-.05.02-.11.04-.16.06-.01,0-.02.01-.03.02-.01,0-.02,0-.03.01-.08-.06-.09-.02-.09.05-.14.07-.27.13-.41.2-.04.02-.09.04-.13.06,0,0,0,.02-.01.03-.1.05-.2.1-.3.15-.02.01-.04.03-.07.04,0,0-.02,0-.03.01l-.03.02s0,0,0,0c-.04.02-.09.04-.13.06h-.01s-.01,0-.01,0c0,0-.02,0-.03,0-.01,0-.02.01-.04.02-.02.02-.04.03-.06.05-.01,0-.02.01-.03.02-.01,0-.02,0-.03.01-.01,0-.02.01-.03.02-.03.01-.06.02-.1.03-.01,0-.02,0-.03.01-.09.05-.17.1-.26.15-.01,0-.02.02-.04.02,0,0-.02,0-.03.01-.01,0-.02.01-.03.02,0,0-.02,0-.03.01-.02.01-.04.03-.07.04-.03.02-.06.03-.09.05l-.03.02s-.02,0-.03.01c-.01,0-.02.01-.03.02-.01,0-.02,0-.04,0,0,0-.02.01-.02.02-.02.02-.04.04-.06.05-.07.04-.13.08-.2.12-.01,0-.02,0-.02.01-.01,0-.02.02-.03.02-.01,0-.02,0-.03,0,0,0-.02.01-.02.02-.02.02-.04.04-.07.05-.01,0-.02.02-.03.02,0,0,0,0,0,0-.01,0-.02,0-.04,0,0,0-.02.01-.02.02-.02.02-.04.04-.07.05-.01,0-.02.02-.03.02-.01,0-.02,0-.03,0,0,0-.02.01-.03.02-.02.02-.04.04-.07.06,0,0-.02.01-.03.02-.01,0-.03.02-.04.02-.03.01-.06.03-.09.04-.01,0-.02.02-.03.02,0,0,0,0,0,0,0,0-.02,0-.02.02l-.16.12-.03.02s-.05.03-.07.05c0,0-.02.01-.02.02-.03.02-.07.05-.1.07,0,0-.02.02-.03.02-.01,0-.02.02-.04.02-.03.02-.07.04-.1.07-.02,0-.03.01-.05.02-.01-.01-.03-.02-.04-.03,0,.03-.02.05-.03.08-.08.05-.15.11-.23.16,0,0-.02.01-.02.02-.05.04-.1.08-.15.13-.02.02-.05.03-.07.05-.01,0-.03.02-.04.03-.05.04-.1.07-.15.11,0,0-.01.01-.02.02-.07.05-.13.09-.2.14,0,0-.02.01-.03.02,0,0,0,0,0,0-.01,0-.02.02-.04.03-.01,0-.02,0-.03,0,0,0-.02.01-.02.02-.07.05-.15.09-.22.14-.01,0-.02.01-.03.02-.03.02-.07.05-.1.07-.02,0-.04,0-.06,0-.01,0-.02.02-.03.02,0,0,0,.01,0,.01-.02,0-.04.02-.06.02-.02,0-.04,0-.06,0-.01,0-.03.01-.04.02-.01,0-.03,0-.04.01-.02,0-.03.01-.05.02-.03,0-.07.02-.1.03,0,0-.02,0-.03,0-.12-.05-.24-.08-.35.02-.01,0-.02,0-.03,0-.01,0-.02.01-.03.02,0,0,0,0,0,0,0,0,0,0,0,0,0,0-.02.01-.02.02,0,0,0,.01,0,.02-.01,0-.02.02-.03.03,0,0,0,0,0,0-.01,0-.02.02-.03.03-.01,0-.02.02-.03.03-.02.01-.04.02-.06.03-.13.04-.29.02-.35.19-.04,0-.08,0-.13,0-.01-.02-.03-.04-.04-.05-.02.02-.04.04-.05.05-.01,0-.02,0-.03,0-.01,0-.02,0-.03,0-.02,0-.04.01-.07.02-.01,0-.02.01-.03.02,0,0,0,0,0,0-.05.02-.1.04-.16.06-.01,0-.02,0-.03.01-.01,0-.02.01-.03.02-.01,0-.02.01-.03.02,0,0-.01.01-.02.02-.01,0-.02,0-.04,0-.03.02-.06.05-.09.07,0,0,0,.01,0,.02-.03.03-.07.06-.1.08-.03.02-.06.05-.09.07-.02.01-.04.02-.06.03-.03.03-.06.05-.09.08-.06.07-.13.14-.19.21-.01.01-.02.02-.03.03-.03.03-.06.06-.09.1,0,0-.02,0-.02,0,0,.01-.02.02-.03.03,0,.01,0,.02,0,.03,0,.01-.02.02-.03.04,0,0,0,0,0,0,0,0,0,.01-.01.02-.03.03-.05.07-.08.1,0,.02-.02.04-.03.06,0,.02,0,.04,0,.06,0,0-.01.02-.02.03,0,0,0,.02-.01.03-.03.03-.06.07-.09.1-.02,0-.04.01-.06.02-.02-.01-.05-.03-.07-.04l-.03.09s0,.02,0,.02c0,0-.02,0-.03,0-.01,0-.02,0-.03,0-.01,0-.02.01-.03.02-.03.02-.07.04-.1.07-.05.03-.1.07-.15.1,0,0,0,0,0,0-.03.03-.07.06-.1.09-.04.04-.08.08-.12.13-.02.01-.04.03-.06.04-.08,0-.17,0-.1.12,0,0,0,.02,0,.03-.08.08-.15.16-.23.23,0,0-.02.02-.02.02-.01,0-.02.02-.03.03-.04.03-.08.06-.12.09-.02-.01-.04-.03-.06-.04-.02.04-.03.08-.05.12-.08.06-.17.12-.25.18-.02,0-.04,0-.05,0-.05.02-.09.03-.14.05-.02,0-.04,0-.07,0-.02,0-.04.02-.06.02-.03,0-.06.01-.1.02-.01,0-.02,0-.03-.01-.04-.09-.08-.09-.13,0-.02,0-.04,0-.06,0-.03,0-.06,0-.09,0-.02,0-.04-.01-.06-.02-.02,0-.04-.02-.07-.02-.01,0-.02-.01-.03-.02-.03,0-.06-.01-.09-.02-.01,0-.02,0-.04-.01-.02,0-.04,0-.06,0-.02,0-.04,0-.06,0-.01,0-.02-.02-.03-.03,0-.03-.02-.06-.02-.09,0,0-.02,0-.03,0,0,.02,0,.05-.01.07-.03,0-.06,0-.09,0-.03,0-.06-.02-.1-.02-.02,0-.04,0-.06,0-.03,0-.06.01-.1.02-.01,0-.02,0-.03.01-.03,0-.06.02-.09.03-.03.01-.06.02-.1.04-.01,0-.02.02-.04.02,0,0,0,0,0,0-.02.01-.04.02-.06.03-.01,0-.02.01-.03.02-.01,0-.02,0-.02.01-.01,0-.03.02-.04.03-.04.02-.08.04-.13.07-.04.02-.09.04-.13.05-.01,0-.02,0-.03.01h-.02s-.01,0-.01,0c-.02,0-.04,0-.05,0-.01,0-.03,0-.04.01h-.19c-.04-.07-.08-.07-.13,0-.03,0-.06,0-.09,0-.05,0-.11-.02-.16-.03-.02,0-.04,0-.06,0-.01,0-.02-.02-.03-.03-.01,0-.02-.01-.03-.02-.01,0-.02,0-.03-.01-.08-.03-.15-.06-.23-.09-.02-.01-.04-.02-.06-.03,0,0-.02-.01-.03-.02-.07-.05-.15-.1-.22-.14-.03-.02-.06-.05-.09-.07-.01,0-.02-.02-.03-.03-.03-.03-.07-.06-.1-.08,0,0,0,0,0,0,0,0-.01-.01-.02-.02-.05-.06-.1-.12-.16-.18-.05-.08,0-.23-.16-.21-.02-.03-.05-.06-.07-.1,0,0-.01-.02-.02-.03,0-.01-.01-.02-.02-.04,0,0,0-.02-.01-.03,0,0,0,0,0,0-.02-.05-.04-.11-.06-.16,0-.02-.01-.04-.02-.07,0-.01,0-.02-.01-.03,0-.02,0-.04,0-.06,0-.01-.02-.03-.03-.04,0-.07,0-.14,0-.21v-.19c0-.05.01-.11.02-.16.02-.04.04-.09.05-.13,0-.02,0-.04,0-.05,0-.01.02-.03.02-.04,0,0,.01,0,.01,0,.11,0,.21,0,.15-.16.04-.04.09-.07.13-.11,0,0,.02-.01.02-.02.04-.02.09-.04.13-.07.04-.01.08-.02.12-.03.01,0,.02-.01.04-.02.01,0,.02-.01.03-.02,0,0,.02,0,.03,0,.04,0,.09-.02.13-.02,0,0,.02,0,.03,0,.01,0,.02-.01.03-.02.02,0,.04-.01.06-.02.3,0,.59-.02.89-.02.06,0,.12,0,.19,0,.01,0,.02-.01.03-.02.01,0,.02-.02.03-.02.02,0,.04-.01.06-.02.04-.02.09-.03.13-.05,0,0,.02,0,.03-.01h.06c.08.06.14.04.16-.06,0,0,0-.01,0-.01.01,0,.02-.01.03-.02.02,0,.04,0,.06-.01.01,0,.02-.01.04-.02.02,0,.04,0,.06-.01.01,0,.03-.01.04-.02.06-.01.12-.03.18-.04.01,0,.02-.02.03-.02.15-.01.29-.03.44-.04.01,0,.02-.02.03-.02.04,0,.08,0,.12,0,.03-.02.06-.04.1-.06,0,0,0,0,0,0,.04-.01.08-.03.12-.04-.02-.03-.03-.06-.05-.09,0-.01,0-.02-.01-.03,0-.06,0-.13.01-.19.02-.04.03-.07.05-.11.01-.02.02-.03.03-.05,0,0,0,0,0,0,.01,0,.02-.02.04-.02.04-.01.09-.02.13-.03.04,0,.08-.02.12-.02.02,0,.04-.01.07-.02.02,0,.04-.02.06-.02.01-.01.02-.03.03-.04,0,0,0-.01.01-.02,0-.03.01-.06.02-.1.02-.01.03-.02.05-.03-.02-.01-.03-.02-.05-.03,0-.03-.01-.07-.02-.1,0-.03,0-.05,0-.08,0-.01,0-.02-.01-.04,0-.03-.01-.06-.02-.09,0-.02-.01-.04-.02-.07,0-.01,0-.02,0-.03.02-.08.13-.17-.03-.22,0-.06-.01-.13-.02-.19,0-.03,0-.06.01-.09.03-.02.06-.04.09-.07-.02-.02-.05-.04-.07-.06,0-.02,0-.04,0-.06,0,0,0,0,0,0,0-.01.02-.02.03-.03,0,0,0,0,0,0,.01,0,.02-.02.03-.03.02,0,.04,0,.06,0,.02,0,.04,0,.06,0,.03.01.07.02.1.04,0,0,.02.02.03.03,0,0,0,0,0,0,0,0,.02.02.03.03,0,0,0,0,0,0,0,.01.02.02.03.03,0,.01.01.02.02.04,0,0,.01.02.02.02v.04s-.01.05-.02.08c.02,0,.03,0,.05,0,.01.03.02.06.03.09,0,.01.01.02.02.04.02.04.04.09.06.13,0,0,0,.01-.01.02,0,.01.01.03.02.04,0,.01.01.02.02.03,0,.01.01.03.02.04,0,.02.01.04.02.05,0,0,.01.02.02.03.03.03.06.07.1.1,0,0,.02.01.03.02.01.01.02.02.04.03,0,0,.01,0,.01,0h.01s0-.02.01-.03c.03,0,.05,0,.08,0,.05-.02.11-.03.16-.05-.01-.03-.02-.05-.04-.08,0-.02,0-.04,0-.06l.02-.03s.03-.05.04-.07c0,0,.01,0,.02,0,.12.02.18-.05.2-.16,0,0,0,0,0,0,.01,0,.02-.01.04-.02.06,0,.11,0,.17-.01.12,0,.25-.02.37-.03.02-.03.04-.05.06-.08,0,0,0,0,0,0,0-.02,0-.03.01-.05,0-.02.01-.04.02-.05,0,0,0,0,0,0,.08,0,.13-.02.05-.1,0,0,0-.02,0-.02l.14-.16c.19.08.15-.06.16-.16.02-.02.04-.05.06-.07.05-.04.09-.07.14-.11,0,0,.02-.01.02-.02,0,0,.01-.01.02-.02,0,0,0,0,0,0,.01,0,.02-.02.03-.03.02-.01.04-.02.06-.03.08,0,.13-.03.13-.12.06-.07.12-.14.18-.2,0,0,0,0,0,0,0,0,.01,0,.02,0,.08.01.11-.02.1-.1.05-.06.11-.12.16-.18.05-.05.11-.09.16-.14,0,0,.01-.01.02-.02,0,0,.01,0,.02,0,0,0,.02-.02.02-.02.04-.05.08-.09.13-.14.02-.01.04-.02.06-.03.21,0,.25-.04.23-.2,0,0,0,0,0,0,.04-.03.07-.06.11-.09.02-.03.05-.06.07-.08.03-.03.07-.05.1-.08.03-.02.06-.03.08-.05.03-.02.06-.05.09-.07,0,0,0,.01,0,.01h0c.1,0,.18,0,.16-.14.02-.03.05-.05.07-.08.02-.02.04-.03.06-.05,0,0,.01,0,.01,0h.01c.12.06.15.04.17-.13,0,0,0-.01,0-.02.04-.03.08-.06.11-.09.03-.01.05-.03.08-.04,0,0,.02-.01.03-.02,0,0,.02-.01.02-.02.15.05.18.03.2-.14.02-.02.05-.05.07-.07.03-.02.06-.04.09-.06.03-.02.06-.04.1-.07.02-.01.04-.03.06-.04.01,0,.02-.02.03-.02.01,0,.02-.01.03-.02,0,0,.01,0,.02-.01.06-.03.11-.06.17-.09,0,0,.02-.01.03-.02.05-.04.11-.08.16-.12,0,0,.02-.01.03-.02.02-.01.05-.03.07-.04.01,0,.02-.01.03-.02.01,0,.02-.01.04-.02,0,0,0,.01.01.01.09,0,.18.04.18-.11,0,0,0-.02,0-.02.01,0,.02-.02.04-.02,0,0,0,0,0,0,.05-.03.11-.06.16-.1.03-.02.06-.03.09-.05,0,0,.02-.01.03-.02,0,0,0,0,0,0,.05-.03.11-.06.16-.09.04-.01.08-.03.11-.04.12.06.21.04.23-.12.03-.01.06-.03.09-.04.07.07.09.03.1-.05.01-.01.02-.02.04-.03,0,0,.02,0,.02-.01.03-.01.07-.03.1-.04,0,0,.02,0,.03,0,.02,0,.04-.02.06-.03.05-.03.11-.05.16-.08,0,0,.02,0,.03-.01.01,0,.02,0,.03-.01.01,0,.02,0,.03,0,.06.06.09.04.09-.04,0,0,0-.02,0-.02.02,0,.04,0,.06,0,.01,0,.02-.01.04-.02.01,0,.02-.02.04-.03,0,0,.01,0,.02.01.04.01.1.07.1-.04,0,0,0-.01,0-.02.07-.03.15-.05.22-.08,0,0,.02-.01.03-.02.02,0,.05-.02.07-.02,0,0,.01,0,.01,0h0c.07-.04.13-.06.2-.08l.06-.02s.02,0,.03,0c.21.06.36,0,.38-.17,0,0,0-.02,0-.02,0,0,0,0,0,0,.05-.03.11-.06.16-.09,0,0,.02-.01.03-.02,0,0,.02-.01.03-.02.06-.04.11-.08.17-.12.01,0,.02,0,.03,0,.09,0,.17-.01.15-.13.03-.03.06-.06.09-.09.08,0,.13-.01.12-.11.01-.02.02-.03.03-.05.02-.01.04-.02.07-.03.03-.02.06-.04.09-.07.04-.02.07-.04.11-.06,0,0,.01,0,.01,0,.06-.02.11-.05.17-.07.02,0,.04,0,.06,0,.02,0,.04-.01.07-.02.04,0,.08-.01.13-.02.02,0,.04,0,.06,0l.07-.02s.09-.01.13-.02c.01,0,.02-.01.03-.02.02,0,.04,0,.06-.01.01,0,.02-.01.03-.02.06-.04.13-.07.19-.11,0,0,.02-.01.02-.02,0,0,0,0,0,0,0,0,.02-.02.03-.03,0,0,0,0,0,0,.01,0,.02-.02.03-.03,0,0,0,0,0,0l.03-.03s.07-.06.1-.1c.07,0,.14,0,.06-.1,0-.02,0-.04,0-.06,0-.01.01-.02.02-.04,0-.01,0-.02.01-.03,0-.01.01-.02.02-.03.03-.04.06-.09.08-.13,0-.01.01-.02.02-.03.04-.08.08-.15.13-.23,0,0,.01-.02.02-.03.02-.02.03-.04.05-.06,0-.01.02-.02.03-.03,0,0,0,0,0,0,.03-.04.06-.08.1-.12.01-.01.02-.02.03-.04,0,0,.02-.02.02-.03.02-.01.04-.02.05-.04.07,0,.12-.01.09-.1,0,0,0,0,0,0,.14.05.14-.04.14-.14.02-.02.04-.04.07-.06.12.01.22,0,.18-.16,0,0,0-.02,0-.03.01,0,.02,0,.03,0,.07,0,.14,0,.12-.1,0,0,0-.02,0-.02.02-.01.04-.02.07-.03.14.07.14-.03.16-.12,0,0,0-.01,0-.02,0,0,.02-.01.03-.02,0,0,0,0,0,0,.05-.04.1-.08.15-.11.03-.01.05-.03.08-.04,0,0,.02-.01.02-.02.02-.01.04-.03.07-.04,0,0,.02-.02.03-.02.02-.02.04-.05.07-.07.03-.02.06-.04.09-.07.02-.02.04-.03.06-.05,0,0,.02-.01.02-.02.03-.02.07-.05.1-.07.05-.04.1-.08.16-.12.01,0,.02,0,.03,0,.18.04.19.04.19-.14,0,0,0-.02,0-.02.01,0,.02-.02.03-.03,0,0,0,0,0,0,.03-.02.06-.05.09-.07.04-.03.09-.06.13-.1,0,0,.02-.02.03-.03.04-.03.09-.07.13-.1.08-.07.17-.15.25-.22.04-.04.09-.09.13-.13,0,0,.02-.02.03-.03.01-.01.02-.02.03-.04,0,0,.02-.02.03-.03.01-.01.02-.02.04-.03,0,0,.02-.02.03-.03.08-.05.15-.1.23-.16.08-.02.21.06.21-.11,0,0,0-.01,0-.02.01,0,.02,0,.04,0,.02,0,.04,0,.06-.01.01,0,.02-.02.04-.03.01,0,.02-.02.03-.02.09-.02.19-.05.28-.07,0,0,.02,0,.03,0,.01,0,.02-.01.04-.02.03-.02.06-.05.1-.07.05-.04.11-.08.16-.13.02-.02.05-.04.07-.06.03-.04.05-.09.08-.13,0,0,0,0,0,0,.03-.02.06-.03.08-.05-.02-.01-.03-.03-.05-.04,0-.01,0-.02-.01-.03,0-.02,0-.04.01-.06.01-.05.02-.1.03-.16,0-.17,0-.34,0-.51,0-.01.02-.02.02-.04,0-.02,0-.04,0-.06v-.1s0-.02,0-.03c0-.01.01-.02.02-.03,0,0,0,0,0,0,0,0,0-.01-.01-.02,0-.03,0-.06,0-.1.02-.01.03-.02.05-.03-.02-.01-.03-.02-.05-.03,0,0,0-.02,0-.03,0-.01.02-.02.02-.03,0-.03,0-.06,0-.09,0,0,.01,0,.02,0,.02-.01.04-.02.06-.03-.02,0-.03-.02-.05-.03h-.01s.02-.06.03-.1c0,0,0-.02.01-.03,0,0,0-.02,0-.03,0-.02.01-.04.02-.06.02-.05.04-.1.06-.15,0-.02,0-.03.01-.05,0-.01,0-.02.01-.03,0,0,0-.02,0-.03,0-.01,0-.02,0-.03,0,0,0-.02,0-.03,0-.02.02-.04.02-.06,0-.01.01-.02.02-.04.06-.09.11-.17.17-.26,0,0,.02-.02.03-.03.03-.02.07-.04.1-.06.03.02.05.03.09.06,0-.06,0-.09,0-.12,0-.01.01-.02.02-.03.06-.02.11-.04.17-.06,0,0,.02,0,.03-.01,0,0,0-.01,0-.02.02,0,.04,0,.06,0,.01,0,.02-.01.03-.02.01,0,.02,0,.03-.01.04-.02.08-.05.13-.07.01-.01.02-.03.04-.04,0,0,.01-.01.02-.02.06-.05.11-.11.17-.16,0,0,.02-.02.03-.03Z"/></svg>