<?xml version="1.0" encoding="UTF-8"?><svg id="Capa_1" xmlns="http://www.w3.org/2000/svg" viewBox="0 0 80 80"><defs><style>.cls-1{fill:#000205;}.cls-2{fill:#fff;}</style></defs><rect class="cls-1" width="80" height="80"/><path class="cls-2" d="m49.42,46.55c1.4.03,2.62-1.31,2.76-2.46.14-1.11-.8-2.13-1.71-2.15-.7-.01-1.38,0-2.11,0-.84,1.47-1.64,2.98-2.37,4.56,1.34.03,2.2.02,3.42.05Zm-21.56-18.79h9.9l.81,3.03-12.06-.75,1.35-2.28Zm12.2,8.28l2.49-3.92,7.56-.63-6.98-.39,1.92-3.37h12.5c7.56,0,7.77,3.24,7.32,5.5-.45,2.26-1.58,3.92-3.31,5.01-1.74,1.09-3.46,1.27-3.46,1.27,1.34.95,2.6,3.44,2.51,5-.09,1.56-.23,3.17-3.12,5.34-2.88,2.17-7.07,2.58-7.07,2.58h-17.39l-.97-3.31,8.42-.61-8.74-.63-1.15-3.92-2.01,3.74-11.39-.78,1.46-2.64,25.08-1.67-23.36-1.4,1.24-2.29,25.3-1.65-23.57-1.5,1.49-2.63,14.08-.88,1.15,3.78Zm-12.33,13.17l-1.69,3.14h-12.04l1.24-2.31,12.49-.83Zm26.6-12.67c1.4.03,2.62-1.31,2.76-2.46.14-1.11-.8-2.13-1.71-2.15-.7-.01-1.38,0-2.11,0-.84,1.47-1.64,2.98-2.37,4.56,1.34.03,2.2.02,3.42.05Z"/></svg>