<?xml version="1.0" encoding="UTF-8"?><svg id="Capa_1" xmlns="http://www.w3.org/2000/svg" viewBox="0 0 80 80"><defs><style>.cls-1{fill:#000205;}.cls-2{fill:#fff;}</style></defs><rect class="cls-1" width="80" height="80"/><polygon class="cls-2" points="29.58 40.08 26.06 40.08 26.46 33.96 24.18 40.08 20.91 40.08 26.1 26.25 29.57 26.25 29.17 32.45 31.5 26.25 34.77 26.25 29.58 40.08 29.58 40.08 29.58 40.08"/><polygon class="cls-2" points="30.01 40.08 35.2 26.25 38.46 26.25 33.28 40.08 30.01 40.08 30.01 40.08 30.01 40.08"/><path class="cls-2" d="m20.53,35.31c-4.57,5.36-8.88,12.5-5.07,15.79,3.69,3.18,8.3,1.3,11.44.04,3.14-1.26,37.88-16.34,37.88-16.34.33-.17.27-.38-.15-.27-.17.04-37.82,10.25-37.82,10.25-4.78,1.34-10.22-1.58-6.29-9.46h0Z"/><path class="cls-2" d="m53.25,28.55l.88-2.3h-9.97l-3.43,4.15,1.58-4.15h-3.31l-5.14,13.83h3.27l2.2-5.78.15,5.78,10.03-.02.95-2.66h-3.81l1.25-3.35h3.14l.97-2.58h-3.14l1.08-2.91h3.31Zm-10.54,10.6l-.21-7.21,4.94-5.43-4.73,12.63h0Z"/></svg>