<?xml version="1.0" encoding="UTF-8"?><svg id="Capa_1" xmlns="http://www.w3.org/2000/svg" viewBox="0 0 80 80"><defs><style>.cls-1{fill:#000205;}.cls-2{fill:#fff;}</style></defs><rect class="cls-1" width="80" height="80"/><path class="cls-2" d="m41.4,26.99c-.17.03-.33.64-.65.96-.24.23-.53.22-.69.5-.06.11-.04.29-.11.47-.13.35-.6.38-.6.76,0,.41.39.49.72.79.26.24.29.4.61.51.27.09.68-.21,1.04-.1.3.09.59.15.65.46.06.28,0,.72-.37.67-.12-.01-.65-.19-1.3-.12-.79.09-1.69.35-1.77,1.22-.05.49.56,1.07,1.14.95.41-.08.21-.56.43-.79.29-.3,1.93,1.04,3.45,1.04.64,0,1.12-.16,1.59-.66.04-.04.1-.12.17-.12.06,0,.18.07.21.1,1.23.98,2.15,2.96,6.66,2.99.63,0,1.36.31,1.95.84.53.49.83,1.24,1.13,2.01.45,1.15,1.26,2.27,2.48,3.52.07.07,1.08.85,1.16.91.01,0,.09.19.06.28-.03.75-.14,2.92,1.48,3.02.4.02.29-.26.29-.45,0-.38-.07-.75.13-1.14.27-.53-.58-.78-.55-1.93.02-.86-.7-.71-1.07-1.37-.21-.38-.4-.58-.39-1.04.08-2.61-.55-4.33-.87-4.75-.25-.32-.45-.44-.23-.59,1.35-.89,1.66-1.72,1.66-1.72.72-1.69,1.37-3.23,2.26-3.91.18-.14.64-.48.92-.62.83-.39,1.27-.63,1.51-.87.38-.37.68-1.15.32-1.62-.46-.58-1.25-.12-1.59.09-2.49,1.48-2.85,4.08-3.71,5.57-.69,1.19-1.8,2.07-2.8,2.14-.75.06-1.55-.1-2.36-.45-1.95-.86-3.02-1.96-3.28-2.16-.52-.41-4.6-4.41-7.9-4.57,0,0-.41-.82-.51-.84-.24-.03-.49.49-.67.55-.17.06-.45-.56-.61-.54h0Z"/><path class="cls-2" d="m26.86,50.87c-.31,0-.58-.26-.58-.58v-10.3s-3.39,0-3.39,0v11.35c0,.56.45,1.01,1,1.01h5.93c.56,0,1-.45,1-1.01v-11.35h-3.39v10.3c0,.31-.27.57-.58.58h0Z"/><path class="cls-2" d="m38.22,39.99h-5.14c-.61,0-1.1.49-1.1,1.11v11.26h3.4v-10.33c0-.32.26-.57.57-.57s.57.25.58.56v10.33h3.38v-10.33c0-.31.26-.56.58-.56s.57.25.58.57v10.33h3.4v-11.26c0-.61-.5-1.11-1.1-1.11h-5.14Z"/><path class="cls-2" d="m20.62,49.25h-3.43v3.11h-3.39v-12.37h6.84c.61,0,1.09.5,1.09,1.11v7.03c0,.62-.5,1.11-1.11,1.11h0Zm-2.28-7.2c0-.34-.28-.59-.57-.59h-.58v6.25h.58c.3,0,.58-.24.57-.58v-5.08h0Z"/><path class="cls-2" d="m57.64,50.89c0,.84-.67,1.52-1.51,1.52s-1.52-.68-1.52-1.52.68-1.52,1.49-1.52c.86,0,1.53.67,1.53,1.52h0Zm-1.53-1.3c-.68,0-1.26.59-1.26,1.3s.57,1.3,1.28,1.3,1.26-.58,1.26-1.3-.57-1.3-1.26-1.3h-.02Z"/><path class="cls-2" d="m56.85,51.77h-.41l-.52-.69v.69h-.33v-1.75h.35c.47,0,.72.18.72.52,0,.23-.15.43-.36.49h-.02s.56.74.56.74h0Zm-.87-.98c.23,0,.36-.08.36-.25,0-.15-.12-.23-.35-.23h-.07v.48h.06Z"/><path class="cls-2" d="m50.16,52.35v-3.1h-1.15v3.1h-3.39v-11.26c0-.61.5-1.11,1.1-1.11h5.73c.61,0,1.1.49,1.1,1.11v11.26h-3.39Zm0-4.64v-5.69c0-.31-.26-.56-.58-.56s-.57.25-.57.57v5.69h1.15Z"/></svg>