<?xml version="1.0" encoding="UTF-8"?><svg id="Capa_1" xmlns="http://www.w3.org/2000/svg" viewBox="0 0 80 80"><defs><style>.cls-1{fill:#000205;}.cls-2{fill:#fff;}</style></defs><rect class="cls-1" width="80" height="80"/><g id="NzRk6d.tif"><path class="cls-2" d="m14,42.95c1.67,0,3.35,0,5.02,0,.66,0,1.3.14,1.89.46.47.25.85.58,1.08,1.07.12.26.19.54.19.83,0,.19.05.39.03.58-.02.21-.07.41-.12.61-.07.3-.24.55-.47.74-.18.15-.41.26-.63.36-.29.13-.61.17-.97.19.85,1.15,1.68,2.27,2.53,3.42-1.03,0-2.04,0-3.05,0,0,0-.01-.01-.02-.02-.86-1.45-1.72-2.9-2.6-4.37.13-.02.25-.03.37-.04.43-.04.87-.08,1.3-.12.22-.02.45-.03.67-.07.22-.03.36-.17.43-.37.08-.24.11-.49.05-.74-.08-.32-.32-.49-.61-.61-.16-.07-.31-.07-.48-.07-.69,0-1.38,0-2.07,0,0,0-.01.01-.02.02,0,.05,0,.09,0,.14,0,2,0,4.01,0,6.01v.13s-.03.01-.04.01c-.82,0-1.65,0-2.47,0,0-2.68,0-5.36,0-8.04,0-.03-.01-.07-.02-.1,0-.01,0-.03,0-.04Z"/><path class="cls-2" d="m51.61,51.37c-.09-.02-.17-.05-.26-.07-.26-.06-.54-.1-.79-.18-.27-.08-.53-.19-.79-.31-.32-.15-.61-.35-.86-.61-.42-.44-.73-.94-.84-1.54-.09-.53-.06-1.05.1-1.56.18-.58.53-1.04.97-1.44.33-.3.74-.48,1.17-.62.33-.11.67-.19,1.01-.25.46-.09.93-.1,1.39-.04.35.04.71.09,1.06.18.74.19,1.38.54,1.89,1.12.36.41.59.89.66,1.44.03.25.05.51.04.76-.02.67-.24,1.26-.69,1.76-.45.5-.99.84-1.61,1.04-.35.11-.71.18-1.06.26-.12.03-.25.02-.38.03-.02,0-.04.01-.06.02h-.07c-.15,0-.29-.02-.44-.02-.04,0-.09.01-.13.02h-.31Zm.63-1.88s0,.02,0,.03c.26-.04.52-.06.77-.12.47-.12.81-.39.92-.88.04-.18.03-.37.04-.55,0-.48-.25-.82-.63-1.06-.5-.32-1.07-.39-1.64-.26-.35.08-.7.19-.93.5-.23.32-.42.65-.34,1.07.08.44.28.79.69,1.01.35.19.72.28,1.12.27Z"/><path class="cls-2" d="m14,42.99s.02.07.02.1c0,2.68,0,5.36,0,8.04,0,0,0,0,0,0,0,0-.02,0-.02,0,0-2.71,0-5.43,0-8.14Z"/><path class="cls-2" d="m51.92,51.37s.09-.02.13-.02c.15,0,.29.01.44.02h-.57Z"/><path class="cls-2" d="m14,51.13s.02,0,.02,0c0,0-.02.01-.02.02,0,0,0-.01,0-.02Z"/><path class="cls-2" d="m39.4,51.13v-8.18h2.53v6.53s.08,0,.11,0c.46,0,.93,0,1.39,0,.47-.01.92-.13,1.29-.43.23-.18.37-.42.44-.71.08-.34.05-.67-.11-.97-.17-.34-.47-.55-.84-.64-.26-.07-.54-.1-.81-.12-.42-.02-.85-.02-1.28-.03-.01,0-.03,0-.06,0,.1-.14.19-.28.28-.41.26-.38.52-.76.78-1.14.04-.06.08-.09.16-.08.41.02.83.03,1.24.05.15,0,.3.02.46.02.64.01,1.19.23,1.67.65.46.4.69.93.78,1.52.05.3.08.61.06.92-.02.64-.21,1.23-.63,1.73-.32.38-.69.7-1.14.93-.36.18-.75.29-1.15.33-.22.02-.44.03-.66.03-1.46,0-2.91,0-4.37,0h-.14Z"/><path class="cls-2" d="m22.73,27.63c3.72,0,7.45,0,11.17,0,.26,0,.48.07.69.2.69.41,1.38.81,2.07,1.21.67.39,1.34.79,2.02,1.18.95.55,1.9,1.1,2.85,1.66,1.19.69,2.38,1.39,3.57,2.08,1.04.61,2.08,1.21,3.12,1.82.05.03.09.06.13.09h0c-.3-.11-.59-.24-.89-.35-1.7-.67-3.39-1.35-5.09-2-.9-.35-1.82-.66-2.73-.99-.42-.15-.85-.29-1.28-.43-.38-.13-.75-.26-1.13-.38-.46-.15-.92-.3-1.39-.45-.45-.14-.89-.29-1.34-.42-.51-.15-1.02-.28-1.53-.42-.6-.16-1.2-.33-1.8-.49-.46-.12-.91-.24-1.37-.37-.49-.13-.98-.27-1.47-.4-.46-.12-.93-.24-1.39-.37-.49-.13-.97-.27-1.46-.4-.46-.12-.91-.24-1.37-.37-.45-.12-.9-.25-1.35-.37,0,0,0-.02,0-.03Z"/><path class="cls-2" d="m64.68,44.98c-.11.1-.22.19-.32.29-.22.2-.44.41-.66.61-.28.26-.56.52-.84.78-.19.18-.38.35-.57.53-.15.13-.29.27-.43.41-.02.02-.02.07,0,.09.2.23.4.45.6.67.36.4.72.81,1.08,1.21.2.22.39.44.59.66.28.31.56.63.85.94,0,.01,0,.03,0,.04-1.01,0-2.03,0-3.04,0-.03,0-.08-.03-.1-.06-.36-.49-.71-.98-1.07-1.47-.36-.49-.73-.99-1.09-1.48-.07-.1-.14-.19-.21-.29,0-.01-.01-.03-.02-.04,0,.01,0,.02,0,.04,0,1.05,0,2.1,0,3.15,0,.04,0,.09,0,.14-.04,0-.07,0-.11,0-.74,0-1.49,0-2.23,0-.09,0-.13-.03-.12-.12,0-.04,0-.07,0-.11,0-2.64,0-5.27,0-7.91,0-.04,0-.08,0-.13h2.46v4.43s.04,0,.05-.02c.21-.2.42-.41.63-.61.26-.25.52-.49.78-.74.26-.24.51-.48.77-.72.04-.04.1-.06.12-.1.14-.22.34-.23.58-.23.78.01,1.55,0,2.33,0,0,0,0,.01,0,.02Z"/><path class="cls-2" d="m34.71,48.75c.08-.11.16-.23.24-.34.24-.32.48-.63.72-.94.21-.28.42-.55.64-.85-.04,0-.08-.02-.11-.02-.48,0-.96-.01-1.43,0-.44.01-.86.12-1.21.41-.27.22-.42.49-.49.82-.07.32.04.6.19.87.21.39.57.55.98.65.37.09.75.14,1.14.14,1.04,0,2.09,0,3.13,0h.14v1.72h-.12c-1.15,0-2.31,0-3.46,0-.36,0-.73-.01-1.09-.07-.39-.06-.77-.15-1.15-.25-.54-.14-1.02-.4-1.41-.79-.35-.35-.56-.78-.67-1.26-.07-.31-.09-.62-.06-.93.07-.65.28-1.26.71-1.77.31-.36.69-.63,1.13-.82.44-.19.9-.31,1.37-.38.17-.02.34-.05.51-.05,1.39,0,2.78-.01,4.17-.02.02,0,.05,0,.08,0,0,.02,0,.04,0,.06,0,.55,0,1.11,0,1.66,0,.06-.05.13-.09.18-.5.63-1,1.26-1.49,1.9-.04.06-.09.07-.15.07-.65,0-1.29,0-1.94,0-.09,0-.17,0-.26,0,0,0,0,0,0,0Z"/><path class="cls-2" d="m30.31,51.13c-1.12,0-2.23,0-3.35,0-.34,0-.67,0-1.01,0-.24-.01-.48-.04-.72-.09-.31-.06-.61-.12-.91-.21-.38-.11-.73-.29-1.03-.55-.31-.26-.55-.58-.7-.97-.17-.43-.19-.87-.19-1.32,0-.35.04-.69.15-1.02.21-.6.59-1.07,1.14-1.4.58-.35,1.21-.54,1.87-.63.31-.04.63-.05.95-.05,1.23,0,2.46,0,3.69,0,.03,0,.06,0,.09,0,0,.57,0,1.14,0,1.71-.53.7-1.06,1.4-1.6,2.09-.02.03-.06.05-.09.06-.73,0-1.46,0-2.19,0-.01,0-.02,0-.06-.01.54-.71,1.07-1.41,1.61-2.13-.05,0-.08,0-.11,0-.47,0-.94,0-1.41,0-.41,0-.8.1-1.15.34-.58.39-.78,1.18-.38,1.79.23.36.57.52.96.62.38.1.76.14,1.15.14,1.05,0,2.09,0,3.14,0,.04,0,.08.01.13.02,0,.54,0,1.08,0,1.62Z"/><path class="cls-2" d="m36.78,32.38c-.23.1-.44.18-.64.27-.5.23-.99.47-1.49.71-.61.3-1.18.65-1.73,1.04-.45.32-.88.67-1.31,1.01-.15.12-.28.25-.42.37-.15.13-.3.25-.45.39-.15.14-.29.27-.42.42-.2.23-.37.47-.57.7-.03.03-.08.07-.12.07-1.9,0-3.79,0-5.69,0-.01,0-.02,0-.06,0,.21-.26.4-.51.61-.76.12-.14.23-.28.36-.42.07-.08.15-.14.23-.21.3-.26.58-.53.89-.78.46-.36.92-.71,1.4-1.03.45-.3.92-.56,1.39-.83.52-.3,1.07-.56,1.62-.8.83-.36,1.69-.68,2.56-.93.06-.02.13-.03.19-.05.15-.06.3-.04.45,0,.9.24,1.8.48,2.7.71.15.04.31.08.49.12Z"/><path class="cls-2" d="m39.77,29.85c.4-.08.77-.16,1.15-.23.78-.14,1.57-.28,2.35-.41.74-.12,1.48-.22,2.23-.32.65-.09,1.3-.18,1.95-.25.61-.07,1.22-.14,1.82-.21.43-.05.87-.1,1.3-.14.27-.03.54-.05.81-.07.29-.03.57-.07.86-.09.22-.02.45-.04.67-.06.26-.03.53-.06.79-.08.33-.03.67-.06,1-.09.35-.03.71-.06,1.06-.09.33-.03.67-.05,1-.08.26-.02.52-.05.78-.08.05,0,.1,0,.15,0-.5.14-1.01.28-1.51.42-1.46.42-2.93.83-4.39,1.25-.63.18-1.26.37-1.88.58-.73.25-1.45.53-2.17.8-1.34.5-2.69,1-4.03,1.5-.04.02-.11.01-.14,0-1.25-.77-2.5-1.53-3.74-2.3-.01,0-.02-.02-.06-.05Z"/><path class="cls-2" d="m33.1,36.15c.12-.12.23-.24.36-.35.15-.14.3-.26.45-.39.15-.13.3-.25.45-.37.22-.17.43-.35.66-.51.39-.27.78-.55,1.19-.8.4-.24.83-.44,1.24-.66.12-.06.25-.12.38-.18.09-.04.17-.05.26-.02.46.16.92.32,1.39.47.45.15.91.3,1.36.45,0,.01,0,.03,0,.04-.32.26-.64.52-.96.78-.18.15-.35.32-.53.48-.23.21-.45.42-.67.64-.13.13-.23.29-.37.42-.35.35-.63.76-.91,1.17-.02.03-.08.05-.12.05-.49,0-.98,0-1.48,0-1.24,0-2.48,0-3.72,0h-.12s-.01-.02-.02-.03c.26-.28.53-.56.79-.84.12-.12.24-.24.35-.35Z"/><path class="cls-2" d="m22.73,27.63s0,.02,0,.03c-.03,0-.05,0-.08-.01v-.03s.05,0,.07.01Z"/><path class="cls-2" d="m59.42,47.92s0-.02,0-.04c0,.01.01.03.02.04,0,0-.01,0-.02,0Z"/><path class="cls-2" d="m64.96,51.21s0-.03,0-.04c.01,0,.02.02.04.03-.01,0-.03,0-.04.01Z"/><path class="cls-2" d="m48.35,35.85s.02,0,.03.01c0,0,0,0,0,0-.01,0-.02,0-.03-.01,0,0,0,0,0,0Z"/><path class="cls-2" d="m40.84,33.83s0-.03,0-.04c0,.01,0,.03,0,.04Z"/><path class="cls-2" d="m16.54,44.83s.01-.01.02-.02c0,0-.01.01-.02.02Z"/><path class="cls-2" d="m64.68,44.98s0-.01,0-.02c0,0,0,.01,0,.02Z"/><path class="cls-2" d="m34.71,48.75s0,0,0,0c0,0-.01,0-.02,0,0,0,0,0,.01-.01Z"/><path class="cls-2" d="m19.5,51.2s.01.01.02.02c0,0-.01-.01-.02-.02Z"/></g></svg>