<?xml version="1.0" encoding="UTF-8"?><svg id="Capa_1" xmlns="http://www.w3.org/2000/svg" viewBox="0 0 80 80"><defs><style>.cls-1{fill:#000205;}.cls-2{fill:#fff;}</style></defs><rect class="cls-1" width="80" height="80"/><path class="cls-2" d="m65,46.94c-.04.39-.09.78-.13,1.17,0,.04,0,.07-.01.13h-.78c.05-.54.09-1.08.14-1.64h.78v.35Z"/><path class="cls-2" d="m14.03,46.59h.78c.05.55.1,1.09.15,1.65h-.78c-.03-.36-.06-.7-.1-1.05,0-.08-.03-.17-.04-.25v-.35Z"/><path class="cls-2" d="m59.01,30.01c-.07.76-.13,1.49-.2,2.25h-.28c-8.61,0-17.22,0-25.83,0-.2,0-.28.06-.35.24-1.35,3.44-2.71,6.88-4.06,10.32-.06.15-.13.21-.29.21-.79,0-1.57,0-2.36,0-.14,0-.21-.04-.26-.18-1.5-4.22-3.01-8.44-4.51-12.66-.02-.05-.03-.1-.05-.17h.35c.78,0,1.56,0,2.34,0,.18,0,.26.06.32.23.99,2.81,1.99,5.61,2.99,8.42.02.06.05.13.09.24.1-.25.18-.45.26-.66,1.06-2.68,2.11-5.35,3.17-8.03.06-.15.13-.2.3-.2,9.38,0,18.76,0,28.15,0h.24Z"/><path class="cls-2" d="m49.18,43.02c-.69,0-1.36,0-2.03,0-.08,0-.19-.1-.24-.17-1.04-1.4-2.08-2.8-3.12-4.21-.05-.06-.09-.12-.18-.23v4.62h-1c-.39,0-.78-.01-1.17,0-.2,0-.25-.05-.25-.25,0-2.83,0-5.66,0-8.49v-.47h.58c.3,0,.61,0,.91,0,.3,0,.66-.08.89.04.23.12.34.47.49.72.82,1.31,1.64,2.63,2.46,3.94.04.06.08.12.16.18v-4.87h2.49v9.19Z"/><path class="cls-2" d="m30.47,42.98c.05-.14.1-.27.15-.4,1.12-2.85,2.25-5.7,3.36-8.56.06-.16.13-.22.31-.21.8.01,1.6,0,2.4,0,.15,0,.21.05.26.18,1.06,2.94,2.12,5.87,3.19,8.8.02.06.04.12.06.2-.08,0-.14.01-.2.01-.74,0-1.47,0-2.21,0-.13,0-.2-.03-.25-.17-.12-.38-.26-.75-.39-1.12-.04-.11-.09-.15-.22-.15-1.05,0-2.11,0-3.16,0-.13,0-.19.05-.23.17-.12.38-.25.75-.39,1.12-.02.06-.11.15-.17.15-.82,0-1.63,0-2.45,0-.02,0-.04-.01-.08-.03Zm4.89-6.11c-.35,1.04-.67,2.01-1.01,3.01h2c-.33-1-.65-1.98-.99-3.01Z"/><path class="cls-2" d="m50.32,40.08c.06,0,.1-.02.14-.02.68,0,1.36,0,2.04,0,.07,0,.18.07.2.13.19.53.56.84,1.11.95.5.1,1,.12,1.5-.02.18-.05.35-.14.49-.25.34-.27.36-.79.03-1.06-.2-.17-.47-.29-.72-.37-.89-.28-1.8-.51-2.69-.79-.81-.26-1.4-.77-1.65-1.6-.3-.98.08-2.02.93-2.66.89-.66,1.89-.84,2.97-.78.85.05,1.65.28,2.34.78.67.49,1.11,1.14,1.23,2-.07,0-.13.02-.18.02-.63,0-1.26,0-1.88,0-.07,0-.19-.04-.21-.09-.21-.56-.64-.81-1.2-.84-.36-.02-.73,0-1.09.07-.3.05-.54.23-.58.56-.04.34.18.57.46.69.4.16.82.28,1.23.39.54.15,1.09.28,1.62.44,1.32.38,2.07,1.52,1.85,2.99-.18,1.22-.92,1.98-2.1,2.29-1.23.32-2.49.35-3.7-.09-1.13-.41-1.88-1.18-2.12-2.39-.01-.06-.02-.11-.02-.17,0-.06,0-.11,0-.18Z"/><path class="cls-2" d="m48.38,48.39c-.22.61-.42,1.17-.62,1.73-.07.19-.09.45-.22.54-.14.1-.39.04-.59.04-.13,0-.26,0-.4,0-.46-1.36-.92-2.71-1.38-4.1.41,0,.77,0,1.14,0,.05,0,.12.11.14.18.2.62.38,1.25.58,1.88.02.06.05.13.09.25.27-.81.53-1.56.79-2.32.3,0,.58,0,.87,0,.06,0,.15.1.17.16.23.66.45,1.32.68,1.98.01.04.03.08.07.17.15-.47.28-.9.41-1.34.09-.28.17-.56.26-.84.02-.05.09-.12.14-.12.35-.01.7,0,1.08,0-.02.09-.03.16-.06.22-.42,1.23-.84,2.46-1.25,3.7-.05.14-.11.19-.26.18-.2-.01-.4-.01-.61,0-.15.01-.22-.04-.27-.19-.24-.69-.49-1.38-.76-2.13Z"/><path class="cls-2" d="m19.02,50.76c-1.08-.01-1.97-.68-2.17-1.64-.24-1.11.38-2.16,1.48-2.49.99-.3,2.05.05,2.58.86.82,1.24.1,2.93-1.38,3.21-.17.03-.34.04-.51.06Zm1.04-2.1c0-.63-.44-1.12-1.04-1.12-.58,0-1.04.47-1.04,1.07,0,.61.45,1.09,1.04,1.1.6,0,1.04-.43,1.05-1.05Z"/><path class="cls-2" d="m35.56,46.6c.35,0,.69,0,1.03,0,.04,0,.11.11.11.17.01.43,0,.86,0,1.32h1.44v-1.48h1.15v4.04h-1.15v-1.5h-1.44v1.5h-1.15v-4.05Z"/><path class="cls-2" d="m43.42,49.7v.95h-3.35v-.22c0-1.2,0-2.4,0-3.59,0-.19.05-.25.24-.24.95.01,1.91,0,2.86,0,.07,0,.14,0,.22,0v.96h-2.15v.6h1.95v.9h-1.95v.63h2.18Z"/><path class="cls-2" d="m55.68,50.67c-.38,0-.75,0-1.12,0-.05,0-.11-.06-.13-.11-.06-.11-.12-.23-.15-.36-.05-.21-.18-.25-.38-.25-.37.01-.75,0-1.12,0-.13,0-.21.03-.26.16-.06.18-.1.43-.24.52-.15.09-.39.03-.59.04-.19,0-.38,0-.61,0,.2-.46.38-.89.56-1.31.37-.87.75-1.73,1.11-2.6.06-.13.12-.19.27-.18.26.01.52,0,.78,0,.07,0,.17.06.19.11.56,1.29,1.12,2.59,1.68,3.88,0,.02,0,.04,0,.09Zm-1.85-1.62c-.15-.37-.29-.72-.45-1.11-.15.37-.28.69-.41,1.02,0,.02,0,.05-.02.09h.87Z"/><path class="cls-2" d="m29.21,46.62v.99h-2.14v.67h1.92v.95h-1.93v1.44h-1.15v-4.04h3.3Z"/><path class="cls-2" d="m25.04,48.28v.95h-1.93v1.43h-1.15v-4.04h3.27v.99h-2.12v.67h1.92Z"/><path class="cls-2" d="m32.44,47.61h-1.24v-.99h3.6v.99h-1.22v3.05h-1.15v-3.05Z"/><path class="cls-2" d="m60.03,50.66v-4.06c.35,0,.7,0,1.05,0,.04,0,.1.12.1.19,0,.85,0,1.7,0,2.55v.31h1.98v1h-3.13Z"/><path class="cls-2" d="m56.26,50.66v-4.04h1.13v3.06h1.99v.99h-3.12Z"/><path class="cls-2" d="m16.03,46.61c.05.54.1,1.08.15,1.65-.24,0-.46,0-.69,0-.04,0-.1-.08-.11-.13-.05-.5-.09-1-.13-1.52h.78Z"/><path class="cls-2" d="m62.85,48.25c.05-.57.1-1.1.14-1.65h.78c-.04.51-.08,1.01-.13,1.51,0,.05-.06.13-.1.13-.23.01-.45,0-.7,0Z"/><path class="cls-2" d="m58.12,42.53c0-.28.22-.49.5-.48.28,0,.5.22.49.49,0,.27-.24.5-.5.49-.27,0-.49-.23-.49-.5Zm.5.43c.24,0,.41-.19.41-.43,0-.24-.18-.42-.43-.42-.24,0-.41.19-.41.43,0,.25.18.42.43.41Z"/><path class="cls-2" d="m58.58,42.63c-.04.05-.08.11-.12.16-.01,0-.03-.02-.04-.02v-.5c.1,0,.19-.01.28,0,.13.02.17.11.14.24-.02.08-.03.17-.05.29-.06-.05-.14-.1-.21-.16Z"/></svg>